<svg width="220" height="437" viewBox="0 0 220 437" fill="none" xmlns="http://www.w3.org/2000/svg">
<mask id="mask0_16_44713" style="mask-type:alpha" maskUnits="userSpaceOnUse" x="0" y="0" width="220" height="437">
<rect width="220" height="437" fill="#D9D9D9"/>
</mask>
<g mask="url(#mask0_16_44713)">
<g opacity="0.3">
<path d="M171.662 261.146L179.056 263.88L158.481 283.86L148.134 241.057L172.375 220.414L171.662 261.146Z" fill="#D9D9D9"/>
<path d="M263.441 145.872L265.081 180.009C258.549 176.18 249.393 172.506 237.28 171.275C234.518 170.989 231.598 170.834 228.527 170.834C220.075 170.834 212.812 172.002 206.662 173.769C198.11 176.226 191.71 179.841 187.236 183.098C178.657 189.343 174.86 195.77 174.187 196.992L172.984 199.181L145.514 197.06L284.089 62.5137L287 122.999L263.441 145.872Z" fill="#D9D9D9"/>
<path d="M234.645 92.6454L233.582 70.5625L195.807 107.239L196.093 123.644L169.318 133.559L168.623 156.746L234.645 92.6454Z" fill="#D9D9D9"/>
<path d="M47.4717 220.414L71.7166 241.057L61.3655 283.86L40.7905 263.88L48.1893 261.146L47.4717 220.414Z" fill="#D9D9D9"/>
<path d="M45.6643 196.992C44.9921 195.765 41.1951 189.343 32.6153 183.098C28.1415 179.846 21.7419 176.226 13.1894 173.769C7.03964 172.002 -0.222908 170.834 -8.67546 170.834C-11.7504 170.834 -14.6663 170.989 -17.4278 171.275C-29.5412 172.506 -38.6977 176.185 -45.229 180.009L-43.5894 145.872L-67.1484 122.999L-64.2371 62.5137L74.3376 197.06L46.868 199.181L45.6643 196.992Z" fill="#D9D9D9"/>
<path d="M50.5328 133.559L23.7535 123.644L24.0442 107.239L-13.7357 70.5625L-14.7939 92.6454L51.2277 156.746L50.5328 133.559Z" fill="#D9D9D9"/>
<path d="M182.427 32.4778C182.427 32.4778 164.291 -0.492188 109.924 -0.492188C55.5567 -0.492188 37.4207 32.4778 37.4207 32.4778L35.9673 115.3L61.1887 124.638L65.8124 150.355L109.919 164.535L154.026 150.355L158.65 124.638L183.871 115.3L182.427 32.4778ZM88.5584 94.1846C86.6917 94.9931 84.716 95.8197 82.722 96.5918C82.2815 96.7644 81.8364 96.9325 81.3958 97.1005C80.7327 97.3503 80.0741 97.5911 79.4155 97.8227C78.7615 98.0589 78.1074 98.2814 77.4625 98.4904C77.031 98.6312 76.6086 98.772 76.1862 98.8991C73.0341 99.8711 70.159 100.507 68.0334 100.507C67.2113 100.507 66.4982 100.407 65.9214 100.203C55.0117 96.233 49.0617 75.4037 49.0617 75.4037L99.7634 88.9387C99.7634 88.9387 98.5189 89.5745 96.4978 90.5465C96.2298 90.6737 95.9482 90.8145 95.6484 90.9553C94.3176 91.5866 92.7279 92.3315 90.9748 93.1172C90.5887 93.2898 90.189 93.467 89.7893 93.6441C89.3851 93.8213 88.9763 94.0029 88.5584 94.1846ZM120.193 139.313C115.901 135.435 112.59 132.164 109.669 129.044C106.749 132.164 103.438 135.435 99.1457 139.313C95.4985 135.03 93.064 130.661 89.8166 124.811C97.3471 114.605 101.285 108.928 109.669 101.524C118.054 108.928 121.992 114.605 129.522 124.811C126.275 130.661 123.845 135.03 120.193 139.313ZM153.027 100.203C152.454 100.412 151.737 100.507 150.915 100.507C148.785 100.507 145.914 99.8757 142.762 98.8991C142.394 98.7811 142.022 98.6675 141.645 98.5403C140.736 98.2451 139.805 97.9226 138.874 97.582C138.434 97.423 137.988 97.264 137.552 97.096C137.107 96.9279 136.667 96.7599 136.226 96.5873C134.237 95.8106 132.256 94.9885 130.39 94.1801C129.972 93.9984 129.563 93.8167 129.163 93.6396C128.764 93.4624 128.364 93.2853 127.978 93.1127C126.229 92.3224 124.64 91.5821 123.304 90.9507C123.009 90.8099 122.723 90.6691 122.455 90.542C120.434 89.57 119.189 88.9341 119.189 88.9341L169.891 75.3991C169.891 75.4037 163.937 96.233 153.027 100.203Z" fill="#D9D9D9"/>
<path d="M-36.4038 188.926C-48.0221 194.785 -52.4369 202.806 -52.4369 202.806L-53.3135 252.804L-38.0889 258.44L-35.2956 273.96L-8.6707 282.526L17.9587 273.96L20.752 258.44L31.2076 254.57L35.9766 252.804L35.4452 222.604L35.2272 209.987L35.1 202.81L24.3265 210.178L24.5445 222.8L24.9397 245.273L16.9685 248.225L11.1276 250.387L10.0239 256.519L8.38881 265.598L-8.6707 271.085L-25.7257 265.598L-27.3608 256.519L-28.4645 250.392L-34.3055 248.23L-42.2811 245.278L-41.5998 206.39L-36.4038 188.926Z" fill="#D9D9D9"/>
<path d="M184.757 202.805L184.629 209.981L184.411 222.598L183.88 252.798L188.649 254.565L199.104 258.434L201.898 273.954L228.527 282.52L255.152 273.954L257.945 258.434L273.17 252.798L272.293 202.8C272.293 202.8 267.879 194.779 256.26 188.92L261.452 206.366L262.133 245.258L254.157 248.21L248.316 250.372L247.213 256.499L245.578 265.579L228.523 271.066L211.463 265.579L209.828 256.499L208.724 250.368L202.883 248.206L194.912 245.254L195.307 222.78L195.525 210.163L184.757 202.805Z" fill="#D9D9D9"/>
<path d="M95.7169 283.855C84.739 286.076 77.2993 290.687 72.603 294.765C67.8612 298.871 65.9036 302.427 65.9036 302.427L65.0225 352.421L80.2516 358.057L83.0404 373.582L109.67 382.143L136.299 373.582L139.092 358.057L154.317 352.421L153.436 302.427C153.436 302.427 151.551 299.007 147.005 295.001C142.394 290.927 135.046 286.267 124.14 283.964L129.491 296.927C134.233 298.844 137.594 301.228 139.801 303.181C141.005 304.24 141.927 305.225 142.594 306.011L143.276 344.881L135.3 347.833L129.459 349.995L128.355 356.127L126.72 365.206L109.661 370.688L92.6057 365.206L90.9751 356.127L89.8714 349.995L84.0305 347.833L76.0549 344.881L76.7407 306.011C77.4492 305.18 78.4394 304.126 79.7429 302.995C81.8822 301.142 85.0888 298.889 89.5626 297.041L95.7169 283.855Z" fill="#D9D9D9"/>
<path d="M134.659 236.674L144.084 275.658L109.924 254.651L75.7687 275.658L85.1886 236.674L54.6577 210.681L94.6359 207.601L109.924 170.525L125.212 207.601L165.19 210.681L134.659 236.674Z" fill="#D9D9D9"/>
</g>
</g>
</svg>
