<svg width="378" height="409" viewBox="0 0 378 409" fill="none" xmlns="http://www.w3.org/2000/svg">
<path d="M254.943 279.346L262.832 282.263L240.88 303.581L229.841 257.912L255.704 235.888L254.943 279.346Z" fill="#D9D9D9"/>
<path d="M352.864 156.355L354.613 192.777C347.645 188.692 337.875 184.772 324.951 183.459C322.005 183.153 318.889 182.989 315.613 182.989C306.595 182.989 298.846 184.234 292.285 186.119C283.16 188.741 276.332 192.598 271.559 196.073C262.405 202.736 258.354 209.593 257.636 210.896L256.352 213.232L227.044 210.969L374.893 67.418L378 131.951L352.864 156.355Z" fill="#D9D9D9"/>
<path d="M322.141 99.5658L321.007 76.0049L280.703 115.136L281.008 132.639L252.442 143.218L251.7 167.956L322.141 99.5658Z" fill="#D9D9D9"/>
<path d="M122.44 235.888L148.307 257.912L137.264 303.581L115.312 282.263L123.206 279.346L122.44 235.888Z" fill="#D9D9D9"/>
<path d="M120.512 210.896C119.794 209.588 115.743 202.736 106.589 196.073C101.816 192.603 94.9881 188.741 85.8633 186.119C79.3019 184.234 71.5532 182.989 62.535 182.989C59.2543 182.989 56.1432 183.153 53.1968 183.459C40.2727 184.772 30.5034 188.697 23.5349 192.777L25.2843 156.355L0.148438 131.951L3.25464 67.418L151.104 210.969L121.796 213.232L120.512 210.896Z" fill="#D9D9D9"/>
<path d="M125.706 143.218L97.1342 132.639L97.4444 115.136L57.1359 76.0049L56.0068 99.5658L126.447 167.956L125.706 143.218Z" fill="#D9D9D9"/>
<path d="M266.427 35.3719C266.427 35.3719 247.077 0.195312 189.071 0.195312C131.066 0.195312 111.716 35.3719 111.716 35.3719L110.165 123.737L137.074 133.701L142.008 161.138L189.067 176.267L236.125 161.138L241.059 133.701L267.968 123.737L266.427 35.3719ZM166.276 101.209C164.284 102.071 162.176 102.953 160.049 103.777C159.579 103.961 159.104 104.141 158.634 104.32C157.927 104.586 157.224 104.843 156.521 105.09C155.823 105.342 155.126 105.58 154.437 105.803C153.977 105.953 153.526 106.103 153.076 106.239C149.713 107.276 146.645 107.954 144.377 107.954C143.5 107.954 142.739 107.848 142.124 107.63C130.484 103.394 124.136 81.1708 124.136 81.1708L178.231 95.6117C178.231 95.6117 176.903 96.2901 174.747 97.3272C174.461 97.4628 174.16 97.6131 173.841 97.7633C172.421 98.4369 170.725 99.2316 168.854 100.07C168.442 100.254 168.016 100.443 167.589 100.632C167.158 100.821 166.722 101.015 166.276 101.209ZM200.028 149.358C195.449 145.219 191.916 141.73 188.8 138.401C185.684 141.73 182.151 145.219 177.572 149.358C173.681 144.788 171.083 140.126 167.618 133.885C175.653 122.996 179.854 116.939 188.8 109.04C197.746 116.939 201.947 122.996 209.982 133.885C206.517 140.126 203.924 144.788 200.028 149.358ZM235.059 107.63C234.449 107.853 233.683 107.954 232.806 107.954C230.533 107.954 227.471 107.281 224.107 106.239C223.715 106.113 223.318 105.992 222.915 105.856C221.946 105.541 220.953 105.197 219.959 104.834C219.489 104.664 219.014 104.494 218.549 104.315C218.074 104.136 217.604 103.956 217.134 103.772C215.012 102.944 212.899 102.066 210.907 101.204C210.461 101.01 210.025 100.816 209.599 100.627C209.172 100.438 208.746 100.249 208.334 100.065C206.468 99.2219 204.772 98.432 203.347 97.7584C203.032 97.6082 202.727 97.458 202.441 97.3223C200.285 96.2853 198.957 95.6068 198.957 95.6068L253.052 81.166C253.052 81.1708 246.699 103.394 235.059 107.63Z" fill="#D9D9D9"/>
<path d="M32.9506 202.29C20.5547 208.541 15.8445 217.099 15.8445 217.099L14.9092 270.443L31.1528 276.457L34.133 293.016L62.5399 302.155L90.9515 293.016L93.9318 276.457L105.087 272.328L110.175 270.443L109.608 238.223L109.376 224.761L109.24 217.104L97.7455 224.964L97.9781 238.431L98.3997 262.409L89.8951 265.559L83.6633 267.865L82.4857 274.407L80.7411 284.094L62.5399 289.948L44.3434 284.094L42.5988 274.407L41.4213 267.87L35.1894 265.563L26.68 262.414L27.4069 220.923L32.9506 202.29Z" fill="#D9D9D9"/>
<path d="M268.914 217.1L268.778 224.757L268.546 238.219L267.979 270.439L273.067 272.324L284.222 276.453L287.202 293.012L315.614 302.151L344.021 293.012L347.001 276.453L363.245 270.439L362.309 217.095C362.309 217.095 357.599 208.537 345.203 202.286L350.742 220.899L351.469 262.395L342.96 265.545L336.728 267.852L335.55 274.389L333.806 284.076L315.609 289.93L297.408 284.076L295.663 274.389L294.486 267.847L288.254 265.54L279.749 262.39L280.171 238.413L280.403 224.951L268.914 217.1Z" fill="#D9D9D9"/>
<path d="M173.914 303.575C162.201 305.945 154.264 310.863 149.253 315.215C144.194 319.596 142.105 323.39 142.105 323.39L141.165 376.729L157.413 382.743L160.389 399.307L188.801 408.441L217.212 399.307L220.192 382.743L236.436 376.729L235.496 323.39C235.496 323.39 233.485 319.741 228.634 315.467C223.715 311.12 215.875 306.148 204.24 303.691L209.948 317.522C215.007 319.567 218.593 322.111 220.948 324.195C222.233 325.324 223.216 326.375 223.929 327.214L224.656 368.685L216.146 371.835L209.914 374.142L208.737 380.684L206.992 390.371L188.791 396.22L170.594 390.371L168.855 380.684L167.677 374.142L161.445 371.835L152.936 368.685L153.668 327.214C154.424 326.327 155.48 325.203 156.871 323.996C159.153 322.019 162.574 319.615 167.348 317.643L173.914 303.575Z" fill="#D9D9D9"/>
<path d="M215.464 253.234L225.519 294.827L189.073 272.415L152.631 294.827L162.682 253.234L130.107 225.501L172.761 222.216L189.073 182.658L205.384 222.216L248.038 225.501L215.464 253.234Z" fill="#D9D9D9"/>
</svg>
