<svg width="220" height="437" viewBox="0 0 220 437" fill="none" xmlns="http://www.w3.org/2000/svg">
<mask id="mask0_16_44737" style="mask-type:alpha" maskUnits="userSpaceOnUse" x="0" y="0" width="220" height="437">
<rect width="220" height="437" fill="#D9D9D9"/>
</mask>
<g mask="url(#mask0_16_44737)">
<g opacity="0.3">
<path d="M95.7012 321.255C95.7012 324.471 95.9583 327.683 96.4726 330.861L97.9183 339.798H124.612L126.058 330.861C126.572 327.683 126.829 324.471 126.829 321.255V270.361H95.7012V321.255Z" fill="#D9D9D9"/>
<path d="M99.7195 351.737C99.7292 362.182 102.47 372.468 107.71 381.7L110.058 385.834H111.975L114.303 381.729C119.563 372.477 122.309 362.163 122.309 351.693V346.172H99.7146L99.7195 351.737Z" fill="#D9D9D9"/>
<path d="M38.1812 282.616L15.8396 266.383L-4.9156 294.949C-6.91931 297.705 -8.69015 300.625 -10.165 303.687C-13.4981 310.596 -13.925 323.554 -10.4561 326.072C-6.98723 328.59 5.70942 323.797 11.1966 318.436C13.472 316.214 15.5388 313.778 17.4164 311.202L38.1812 282.616Z" fill="#D9D9D9"/>
<path d="M25.0428 253.721L18.8801 262.203L41.2209 278.435L47.3836 269.954L25.0428 253.721Z" fill="#D9D9D9"/>
<path d="M227.452 294.969L206.683 266.383L184.341 282.616L205.096 311.183C207.1 313.938 209.327 316.524 211.782 318.877C217.322 324.18 229.514 328.595 232.983 326.072C236.452 323.554 235.817 309.994 232.411 303.119C231.004 300.266 229.325 297.545 227.452 294.969Z" fill="#D9D9D9"/>
<path d="M197.481 253.709L175.141 269.941L181.303 278.423L203.644 262.191L197.481 253.709Z" fill="#D9D9D9"/>
<path d="M90.7967 338.337L89.7633 331.943C89.1957 328.421 88.9046 324.826 88.9046 321.255V285.828V285.465C84.9603 284.761 77.2608 283.194 77.2608 283.194C72.676 281.928 68.198 280.414 63.8412 278.663C63.8412 278.663 57.4662 275.553 54.2787 273.952C53.9391 273.782 53.5946 273.607 53.255 273.428L53.0367 273.729L47.666 281.113L22.9082 315.19C22.7336 315.433 22.554 315.676 22.3745 315.913C20.4096 318.548 18.2943 320.978 16.0771 323.162C19.546 325.194 23.0829 327.12 26.6876 328.93C28.6671 326.781 30.5543 324.476 32.33 322.036L32.7764 321.425C47.1177 328.43 62.5361 333.573 78.7114 336.542L80.3076 346.396C84.4702 347.08 88.6717 347.633 92.9217 348.041V346.59H92.1309L90.7967 338.337Z" fill="#D9D9D9"/>
<path d="M20.1473 248.893L19.929 249.194L14.3351 256.893L-10.413 290.957C-10.5391 291.126 -10.6604 291.301 -10.7817 291.476C-12.6738 294.134 -14.3525 296.895 -15.7691 299.694C-18.7529 296.977 -21.6493 294.159 -24.4438 291.253C-23.0563 288.817 -21.5134 286.43 -19.8299 284.111L-19.1362 283.16C-30.7752 270.803 -40.6724 256.796 -48.4399 241.524L-48.5223 241.553C-51.6128 242.562 -54.7324 243.333 -57.818 243.857C-59.618 240.223 -61.3015 236.526 -62.8637 232.766C-62.2136 232.728 -61.5877 232.665 -60.991 232.577C-58.5021 232.213 -55.9599 231.646 -53.4225 230.884C-52.9858 230.758 -52.554 230.622 -52.1174 230.481L-17.5836 219.26L-28.9122 184.396L-63.4313 195.613C-63.7224 195.71 -64.0135 195.802 -64.2998 195.909C-67.1331 196.874 -69.85 198.058 -72.3825 199.417C-72.6203 199.548 -72.8677 199.683 -73.12 199.834C-73.9642 195.875 -74.6822 191.872 -75.2644 187.826C-72.6348 186.565 -15.8419 168.672 -15.8419 168.672C-14.1147 195.695 -3.95548 220.429 12.0257 240.267C12.0257 240.267 17.1733 245.817 19.8319 248.568C19.9387 248.68 20.0406 248.786 20.1473 248.893Z" fill="#D9D9D9"/>
<path d="M297.785 187.826C297.198 191.882 296.48 195.894 295.636 199.858C295.214 199.596 294.792 199.358 294.38 199.14C292.022 197.903 289.484 196.816 286.821 195.909C286.539 195.812 286.253 195.715 285.967 195.623L251.433 184.401L240.1 219.264L274.624 230.481C275.061 230.622 275.497 230.758 275.939 230.889C278.656 231.704 281.397 232.301 284.104 232.669C284.502 232.723 284.924 232.766 285.37 232.796C283.813 236.546 282.134 240.238 280.339 243.862C277.229 243.333 274.105 242.557 271.024 241.558L270.956 241.533C263.189 256.801 253.291 270.808 241.657 283.16L242.366 284.13C244.049 286.449 245.592 288.836 246.97 291.253C244.17 294.159 241.274 296.977 238.29 299.694C236.888 296.914 235.209 294.154 233.298 291.476C233.181 291.306 233.065 291.141 232.944 290.976L208.186 256.893L202.592 249.194L202.374 248.893C202.485 248.786 202.587 248.68 202.694 248.568C205.348 245.817 210.495 240.267 210.495 240.267C226.477 220.429 236.636 195.695 238.363 168.672C238.363 168.672 295.175 186.574 297.785 187.826Z" fill="#D9D9D9"/>
<path d="M199.599 315.175L179.794 287.914L177.543 284.813L174.856 281.112L169.485 273.723L169.267 273.422C168.927 273.601 168.587 273.776 168.243 273.946C165.06 275.552 158.68 278.662 158.68 278.662C154.324 280.413 149.846 281.927 145.261 283.193C145.261 283.193 137.561 284.76 133.617 285.464V285.827V321.254C133.617 324.825 133.326 328.42 132.758 331.942L131.725 338.336L130.391 346.589H129.095V348.083C133.515 347.676 137.886 347.108 142.214 346.395L143.81 336.541C159.99 333.572 175.409 328.429 189.75 321.419L190.182 322.016C191.948 324.446 193.84 326.76 195.839 328.924C199.444 327.119 202.98 325.193 206.449 323.156C204.213 320.953 202.097 318.522 200.147 315.907C199.958 315.665 199.778 315.422 199.599 315.175Z" fill="#D9D9D9"/>
<path d="M1.41958 92.3324C-8.40977 109.027 -14.5422 128.157 -15.8473 148.596C-15.8473 148.596 -72.6596 130.694 -75.2698 129.442C-74.6827 125.386 -73.9647 121.374 -73.1205 117.41C-72.6984 117.672 -72.2763 117.91 -71.8639 118.128C-69.5061 119.366 -66.9687 120.452 -64.3051 121.36C-64.0237 121.457 -63.7375 121.554 -63.4513 121.646L-28.9175 132.868L-17.5842 98.0039L-52.1082 86.787C-52.5448 86.6463 -52.9815 86.5104 -53.423 86.3794C-56.1399 85.5644 -58.881 84.9676 -61.5882 84.5989C-61.9861 84.5455 -62.4082 84.5019 -62.8545 84.4728C-61.2971 80.7225 -59.6185 77.0304 -57.8234 73.4062C-54.9804 73.8914 -52.1228 74.5803 -49.304 75.4585L-49.1681 75.5021L1.41958 92.3324Z" fill="#D9D9D9"/>
<path d="M188.242 123.426C188.242 123.426 170.926 91.9492 119.024 91.9492V189.564C126.859 196.526 130.619 201.935 137.736 211.575C134.636 217.16 132.317 221.332 128.829 225.422C124.85 221.822 121.755 218.775 119.024 215.874V249.505L161.136 235.964L165.551 211.41L189.629 202.493L188.242 123.426ZM160.175 188.084C153.601 190.476 127.868 177.328 127.868 177.328L176.273 164.408C176.273 164.408 170.591 184.3 160.175 188.084Z" fill="#D9D9D9"/>
<path d="M31.927 189.393L56.0055 198.311L60.4205 222.865L102.532 236.406V202.774C99.801 205.675 96.7105 208.722 92.7273 212.322C89.2439 208.232 86.92 204.06 83.8198 198.476C90.9322 188.831 94.6971 183.426 102.532 176.464V78.8496C50.6299 78.8496 33.3146 110.327 33.3146 110.327L31.927 189.393ZM45.2786 151.308L93.6831 164.228C93.6831 164.228 67.9502 177.376 61.3763 174.984C50.9647 171.2 45.2786 151.308 45.2786 151.308Z" fill="#D9D9D9"/>
<path d="M126.823 50.4674V-0.425905C126.823 -3.64252 126.566 -6.85429 126.052 -10.0321L124.606 -18.9688H97.9127L96.467 -10.0321C95.9527 -6.85429 95.6956 -3.64252 95.6956 -0.425905V50.4674H126.823Z" fill="#D9D9D9"/>
<path d="M17.4249 5.89651C15.4212 3.14079 13.1943 0.554886 10.7394 -1.79814C5.19887 -7.10095 -6.99321 -11.5159 -10.4621 -8.99308C-13.931 -6.47509 -13.2955 7.08515 -9.88963 13.9599C-8.47781 16.8126 -6.804 19.5295 -4.93128 22.1106L15.8384 50.6962L38.1801 34.4628L17.4249 5.89651Z" fill="#D9D9D9"/>
<path d="M41.2244 38.6486L18.8835 54.8809L25.0462 63.3627L47.3871 47.1304L41.2244 38.6486Z" fill="#D9D9D9"/>
<path d="M227.436 22.1292C229.44 19.3735 231.211 16.4528 232.686 13.3914C236.019 6.48275 236.446 -6.47589 232.977 -8.99387C229.508 -11.5119 216.811 -6.71847 211.324 -1.35745C209.049 0.864588 206.982 3.3001 205.104 5.8763L184.334 34.462L206.676 50.6954L227.436 22.1292Z" fill="#D9D9D9"/>
<path d="M181.304 38.653L175.141 47.1348L197.482 63.3671L203.645 54.8853L181.304 38.653Z" fill="#D9D9D9"/>
</g>
</g>
</svg>
