<svg width="793" height="221" viewBox="0 0 793 221" fill="none" xmlns="http://www.w3.org/2000/svg">
<path fill-rule="evenodd" clip-rule="evenodd" d="M652.085 1.5966V42.4386L631.775 1.5966H594.125V101.873H628.338V62.3188L650.158 101.873H686.662V33.9921L666.353 28.8933H710.982V101.873H745.924V28.8933H769.618L780.71 1.5966H652.085ZM581.002 1.5966H546.424V101.873H581.002V36.3612L554.496 28.8933H581.002V1.5966ZM426.86 9.68259C421.288 4.78979 412.695 2.16313 401.135 1.6996V1.6481H400.406C399.468 1.6481 398.479 1.5966 397.489 1.5966L341.717 1.6481L347.289 27.9147H376.763L357.86 33.8891V101.873H392.282V70.5593H399.312C411.966 70.5593 421.288 67.9842 427.172 62.8338C433.057 57.5805 436.025 48.722 436.025 36.3612C436.025 23.949 432.952 15.0904 426.86 9.68259ZM400.926 47.1769C400.041 48.8765 398.375 49.752 395.823 49.752H391.605V28.0692H399.104C399.833 28.4812 400.353 29.0478 400.77 29.7688C401.864 31.4684 402.384 34.4041 402.384 38.4729C402.384 42.5416 401.916 45.4258 400.926 47.1769ZM322.657 59.4346C327.136 56.499 330.417 53.2028 332.5 49.3915C334.687 45.5288 335.78 40.327 335.78 33.8891C335.78 22.8159 332.76 14.6784 326.771 9.52808C320.731 4.27476 311.409 1.5966 298.703 1.5966L238.608 1.6481L244.18 27.9147H273.655L255.272 33.9921V101.925H288.861V67.3661H291.464L301.619 101.925H337.863L322.657 59.4346ZM297.557 45.5288C296.568 46.9194 294.797 47.6404 292.298 47.6404H288.184V28.0692H292.454C294.745 28.0692 296.464 28.7903 297.557 30.1808C298.651 31.5714 299.224 34.0951 299.224 37.7518C299.224 41.46 298.651 44.0352 297.557 45.5288ZM224.548 1.5966H174.556L153.413 101.873H186.377L189.814 86.3708H208.04L211.321 101.873H245.742L224.548 1.5966ZM192.261 65.5635L198.979 31.9835L205.54 65.5635H192.261ZM130.917 1.5966L122.168 47.6404L109.618 1.5966H78.6333L66.6039 47.6404L56.7097 1.5966L9.32129 1.6481L14.8933 27.9147H48.4297L31.8698 33.9921L47.2841 101.925H86.2883L93.5268 61.2372L101.911 101.925H140.915L161.901 1.5966H130.917ZM525.23 11.9487C518.095 3.96574 506.222 0 489.506 0C472.894 0 460.917 4.01725 453.574 12.1032C446.388 20.1892 442.743 33.2195 442.743 51.1941C442.743 69.0657 446.336 82.2505 453.574 90.7486C460.917 99.2466 472.738 103.521 489.142 103.521C505.649 103.521 517.575 99.1951 524.865 90.594C532.312 81.993 536.009 68.7567 536.009 50.8851C536.061 32.9105 532.416 19.9317 525.23 11.9487ZM500.806 56.705C500.806 65.615 500.181 71.3834 498.984 73.9585C497.786 76.5337 494.766 77.8213 489.975 77.8213C485.184 77.8213 482.059 76.4822 480.601 73.804C479.195 71.1259 478.466 65.2545 478.466 56.1899V49.0825C478.466 40.2755 479.143 34.5071 480.445 31.7774C481.747 29.0993 484.767 27.7602 489.454 27.7602C494.141 27.7602 497.213 29.1508 498.619 31.9835C500.025 34.6616 500.754 40.43 500.754 49.237V56.705H500.806Z" fill="white"/>
<path fill-rule="evenodd" clip-rule="evenodd" d="M266.625 164.707L263.031 182.578H270.114L266.625 164.707ZM266.625 164.707L263.031 182.578H270.114L266.625 164.707ZM266.625 164.707L263.031 182.578H270.114L266.625 164.707ZM331.458 163.78C330.885 163.059 330 162.647 328.75 162.647H326.511V173.05H328.698C330.052 173.05 330.937 172.69 331.51 171.917C332.083 171.145 332.395 169.754 332.395 167.797C332.291 165.891 332.031 164.552 331.458 163.78ZM331.458 163.78C330.885 163.059 330 162.647 328.75 162.647H326.511V173.05H328.698C330.052 173.05 330.937 172.69 331.51 171.917C332.083 171.145 332.395 169.754 332.395 167.797C332.291 165.891 332.031 164.552 331.458 163.78ZM266.625 164.707L263.031 182.578H270.114L266.625 164.707ZM266.625 164.707L263.031 182.578H270.114L266.625 164.707ZM331.458 163.78C330.885 163.059 330 162.647 328.75 162.647H326.511V173.05H328.698C330.052 173.05 330.937 172.69 331.51 171.917C332.083 171.145 332.395 169.754 332.395 167.797C332.291 165.891 332.031 164.552 331.458 163.78ZM523.199 164.707L519.605 182.578H526.636L523.199 164.707ZM523.199 164.707L519.605 182.578H526.636L523.199 164.707ZM328.75 162.647H326.511V173.05H328.698C330.052 173.05 330.937 172.69 331.51 171.917C332.083 171.145 332.395 169.754 332.395 167.797C332.395 165.84 332.083 164.501 331.51 163.78C330.833 163.059 329.948 162.647 328.75 162.647ZM266.625 164.707L263.031 182.578H270.114L266.625 164.707ZM146.487 129.479L166.068 221H626.203L645.783 129.479H146.487ZM191.116 162.595H237.983L240.327 173.668H193.459L191.116 162.595ZM273.134 201.892L271.416 193.651H261.73L259.907 201.892H242.358L244.128 193.6H206.842L204.499 182.527H246.419L253.606 148.535H280.164L291.464 201.892H273.134ZM333.593 201.892L328.177 183.505H326.771V201.892H308.91V148.586H331.979C338.697 148.586 343.696 149.977 346.872 152.809C350.049 155.539 351.663 159.865 351.663 165.788C351.663 169.239 351.09 171.969 349.945 174.029C348.851 176.037 347.081 177.788 344.737 179.334L352.861 201.892H333.593ZM413.997 162.595H388.22V168.981H405.405V181.497H388.22V187.883H413.997V201.892H369.785V148.586H413.997V162.595ZM481.434 201.892H462.062L450.45 180.879V201.892H432.276V148.586H452.272L463.104 170.321V148.586H481.486L481.434 201.892ZM583.554 193.6H546.268L547.986 201.892H529.708L527.99 193.651H518.304L516.481 201.892H498.984L510.232 148.586H536.79L543.977 182.578H585.897L583.554 193.6ZM596.885 173.668H550.017L552.361 162.595H599.228L596.885 173.668ZM519.605 182.578H526.636L523.147 164.707L519.605 182.578ZM328.75 162.647H326.511V173.05H328.698C330.052 173.05 330.937 172.69 331.51 171.917C332.083 171.145 332.395 169.754 332.395 167.797C332.395 165.84 332.083 164.501 331.51 163.78C330.833 163.059 329.948 162.647 328.75 162.647ZM263.031 182.578H270.114L266.625 164.707L263.031 182.578ZM266.625 164.707L263.031 182.578H270.114L266.625 164.707ZM331.458 163.78C330.885 163.059 330 162.647 328.75 162.647H326.511V173.05H328.698C330.052 173.05 330.937 172.69 331.51 171.917C332.083 171.145 332.395 169.754 332.395 167.797C332.291 165.891 332.031 164.552 331.458 163.78ZM331.458 163.78C330.885 163.059 330 162.647 328.75 162.647H326.511V173.05H328.698C330.052 173.05 330.937 172.69 331.51 171.917C332.083 171.145 332.395 169.754 332.395 167.797C332.291 165.891 332.031 164.552 331.458 163.78ZM266.625 164.707L263.031 182.578H270.114L266.625 164.707ZM266.625 164.707L263.031 182.578H270.114L266.625 164.707ZM331.458 163.78C330.885 163.059 330 162.647 328.75 162.647H326.511V173.05H328.698C330.052 173.05 330.937 172.69 331.51 171.917C332.083 171.145 332.395 169.754 332.395 167.797C332.291 165.891 332.031 164.552 331.458 163.78ZM331.458 163.78C330.885 163.059 330 162.647 328.75 162.647H326.511V173.05H328.698C330.052 173.05 330.937 172.69 331.51 171.917C332.083 171.145 332.395 169.754 332.395 167.797C332.291 165.891 332.031 164.552 331.458 163.78ZM266.625 164.707L263.031 182.578H270.114L266.625 164.707Z" fill="white"/>
<path fill-rule="evenodd" clip-rule="evenodd" d="M133.312 192.261L119.825 129.479H0L13.4354 192.261H133.312Z" fill="white"/>
<path fill-rule="evenodd" clip-rule="evenodd" d="M673.175 129.479L659.74 192.261H779.565L793 129.479H673.175Z" fill="white"/>
</svg>
