<svg width="59" height="59" viewBox="0 0 59 59" fill="none" xmlns="http://www.w3.org/2000/svg">
<path fill-rule="evenodd" clip-rule="evenodd" d="M29.6106 58.9895H29.3754C17.6646 58.9895 10.8157 57.8101 6.04499 53.1341C1.13387 48.1248 0 41.3249 0 29.6597V29.3298C0 17.6645 1.13387 10.8157 6.04499 5.85541C10.8613 1.17951 17.6646 0 29.3789 0H29.6141C41.2794 0 48.1281 1.17951 52.9411 5.85541C57.852 10.8648 58.9861 17.6645 58.9861 29.3298V29.6597C58.9861 41.3284 57.852 48.174 52.9411 53.1341C48.1246 57.8101 41.3251 58.9895 29.6106 58.9895ZM51.5567 28.626C51.7814 28.6366 51.9639 28.8226 51.9639 29.0472H51.9604V29.9879C51.9604 30.216 51.7779 30.4021 51.5532 30.4091C43.4907 30.7144 38.5875 31.7394 35.1512 35.1756C31.7183 38.6084 30.6934 43.505 30.3845 51.553C30.374 51.7777 30.1879 51.9603 29.9633 51.9603H29.0191C28.791 51.9603 28.6049 51.7777 28.598 51.553C28.2891 43.505 27.2641 38.6084 23.8314 35.1756C20.3987 31.7429 15.4917 30.7144 7.4293 30.4091C7.20466 30.3986 7.02215 30.2125 7.02215 29.9879V29.0472C7.02215 28.8191 7.20466 28.633 7.4293 28.626C15.4917 28.3206 20.3951 27.2958 23.8314 23.8595C27.2712 20.4197 28.2961 15.5057 28.6015 7.42928C28.612 7.20464 28.798 7.02214 29.0227 7.02214H29.9633C30.1915 7.02214 30.3775 7.20464 30.3845 7.42928C30.6899 15.5092 31.7148 20.4197 35.1547 23.8595C38.5875 27.2922 43.4942 28.3206 51.5567 28.626Z" fill="#1F1D21"/>
</svg>
