<svg width="75" height="57" viewBox="0 0 75 57" fill="none" xmlns="http://www.w3.org/2000/svg">
<path d="M63.5321 4.77366C58.6046 2.51145 53.4026 0.906569 48.0591 0C47.3279 1.31076 46.6663 2.65937 46.077 4.04016C40.3851 3.18009 34.5969 3.18009 28.905 4.04016C28.3155 2.65951 27.6539 1.31092 26.923 0C21.576 0.914224 16.3706 2.52292 11.4381 4.78549C1.64576 19.3135 -1.00879 33.4807 0.318489 47.4468C6.05313 51.6955 12.4718 54.9267 19.2956 57C20.8321 54.9277 22.1917 52.7293 23.36 50.4281C21.141 49.597 18.9992 48.5717 16.9596 47.3639C17.4964 46.9735 18.0214 46.5713 18.5287 46.1809C24.4637 48.9797 30.9414 50.4308 37.4999 50.4308C44.0584 50.4308 50.5361 48.9797 56.471 46.1809C56.9843 46.6009 57.5093 47.0031 58.0402 47.3639C55.9966 48.5736 53.8509 49.6009 51.628 50.434C52.7948 52.7342 54.1545 54.9307 55.6924 57C62.5219 54.935 68.9456 51.7053 74.6812 47.4527C76.2386 31.2565 72.0208 17.2195 63.5321 4.77366ZM25.0412 38.8577C21.3425 38.8577 18.2868 35.4919 18.2868 31.3512C18.2868 27.2105 21.2363 23.8151 25.0294 23.8151C28.8224 23.8151 31.8545 27.2105 31.7896 31.3512C31.7248 35.4919 28.8106 38.8577 25.0412 38.8577ZM49.9585 38.8577C46.254 38.8577 43.2101 35.4919 43.2101 31.3512C43.2101 27.2105 46.1596 23.8151 49.9585 23.8151C53.7575 23.8151 56.766 27.2105 56.7011 31.3512C56.6362 35.4919 53.728 38.8577 49.9585 38.8577Z" fill="#1F1D21"/>
</svg>
