<svg width="410" height="413" viewBox="0 0 410 413" fill="none" xmlns="http://www.w3.org/2000/svg">
<path d="M24.8451 206.458H119.567C119.567 159.475 157.655 121.387 204.637 121.387C251.62 121.387 289.708 159.475 289.708 206.458H384.44C384.455 189.822 392.698 173.191 409.165 163.684L409.274 163.624C402.936 142.217 394.22 121.835 383.365 103.04C372.595 84.389 359.421 66.7779 344.203 50.6841L343.989 50.8085C311.02 69.8424 269.808 46.0475 269.808 7.97972V7.74092C248.262 2.60684 226.422 0 204.886 0C183.181 0 161.172 2.64167 139.466 7.85535V7.96977C139.466 46.0376 98.2544 69.8325 65.2859 50.7985L65.0869 50.6841C49.8687 66.7779 36.6903 84.389 25.9246 103.04C15.0744 121.835 6.35836 142.217 0.0153809 163.624L0.124814 163.684C16.5867 173.191 24.8252 189.822 24.8451 206.458ZM310.244 100.07C329.094 88.2395 353.969 93.9358 365.794 112.786C377.624 131.635 371.928 156.51 353.078 168.335C334.228 180.16 309.354 174.469 297.528 155.619C285.698 136.77 291.389 111.895 310.244 100.07ZM203.011 20.6756C218.672 20.0985 232.561 28.5459 239.7 41.3512C243.024 47.2117 244.929 53.9775 244.929 61.1911C244.929 83.4487 226.89 101.488 204.632 101.488C189.832 101.488 176.907 93.503 169.898 81.618C169.749 81.3692 169.609 81.1205 169.465 80.8717C169.351 80.6628 169.231 80.4588 169.117 80.2499C166.211 74.9367 164.455 68.8922 164.216 62.4298C163.406 40.1821 180.773 21.4915 203.011 20.6756ZM41.8542 115.591C52.2667 95.9208 76.6535 88.4186 96.3193 98.8311C115.985 109.243 123.492 133.63 113.08 153.296C102.667 172.962 78.2803 180.469 58.6146 170.056C38.9489 159.644 31.4418 135.262 41.8542 115.591Z" fill="#D9D9D9"/>
<path d="M389.951 263.166C384.783 277.046 378.534 290.359 371.286 302.915C362.679 317.82 352.441 332.043 340.775 345.306C333.88 342.794 326.616 341.491 319.333 341.491C288.195 341.491 262.221 364.037 256.878 393.657C239.392 397.194 221.775 398.985 204.383 398.985C187.17 398.985 169.728 397.229 152.406 393.757C147.107 364.082 121.109 341.481 89.931 341.481C82.6428 341.481 75.3746 342.784 68.4744 345.301C56.8083 332.038 46.5699 317.815 37.9684 302.91C30.72 290.354 24.4665 277.041 19.3026 263.161L0 249.291C6.338 270.698 15.054 291.08 25.9092 309.875C36.6799 328.526 49.8534 346.137 65.0715 362.231L65.2854 362.107C73.2502 357.505 81.7075 355.405 89.936 355.405C115.771 355.405 139.466 376.061 139.466 404.935V405.174C161.012 410.308 182.852 412.915 204.388 412.915C226.094 412.915 248.103 410.273 269.808 405.06V404.945C269.808 376.076 293.508 355.415 319.338 355.415C327.571 355.415 336.019 357.515 343.988 362.116L344.188 362.231C359.406 346.137 372.584 328.526 383.35 309.875C394.2 291.08 402.916 270.698 409.259 249.291L389.951 263.166Z" fill="#D9D9D9"/>
<path d="M331.84 252.098C336.148 252.098 340.287 253.132 344.138 255.167C356.988 261.968 361.908 277.957 355.107 290.807C350.525 299.469 341.58 304.846 331.77 304.846C327.457 304.846 323.318 303.812 319.467 301.777C313.243 298.483 308.672 292.961 306.602 286.23C304.532 279.499 305.204 272.365 308.497 266.142C313.079 257.48 322.024 252.098 331.84 252.098ZM77.5683 252.346C86.7221 252.346 95.0848 256.968 99.9403 264.704C107.666 277.017 103.935 293.325 91.6173 301.051C87.4086 303.692 82.573 305.09 77.6428 305.09C68.4891 305.09 60.1263 300.468 55.2708 292.733C47.5448 280.42 51.276 264.112 63.5938 256.386C67.8025 253.739 72.6332 252.346 77.5683 252.346ZM204.632 325.358C209.303 325.358 213.89 326.592 217.89 328.93C221.79 331.208 225.064 334.472 227.362 338.372L227.392 338.427L227.412 338.457C227.467 338.546 227.516 338.636 227.566 338.725L227.69 338.939L227.785 339.108C227.815 339.163 227.85 339.218 227.874 339.263L227.899 339.307L227.924 339.352C229.894 342.959 230.974 346.879 231.123 351.003C231.655 365.53 220.273 377.788 205.741 378.32C205.413 378.33 205.075 378.34 204.746 378.34C195.209 378.34 186.389 373.147 181.727 364.779L181.703 364.734L181.678 364.689C179.444 360.749 178.265 356.262 178.265 351.72C178.265 337.188 190.095 325.358 204.632 325.358ZM331.835 238.168C317.388 238.168 303.413 245.964 296.185 259.62C285.772 279.29 293.279 303.677 312.945 314.085C318.955 317.269 325.402 318.776 331.765 318.776C346.212 318.776 360.186 310.98 367.415 297.324C377.827 277.654 370.32 253.267 350.655 242.859C344.64 239.675 338.193 238.168 331.835 238.168ZM77.5683 238.417C70.2502 238.417 62.8426 240.407 56.1912 244.586C37.3414 256.416 31.6451 281.285 43.4754 300.135C51.1267 312.334 64.2405 319.02 77.6478 319.02C84.9659 319.02 92.3735 317.03 99.0249 312.851C117.875 301.021 123.571 276.151 111.741 257.301C104.089 245.103 90.9756 238.417 77.5683 238.417ZM204.632 311.428C182.374 311.428 164.335 329.472 164.335 351.725C164.335 358.938 166.241 365.704 169.564 371.565C176.474 383.962 189.707 392.27 204.746 392.27C205.244 392.27 205.746 392.26 206.254 392.24C228.491 391.424 245.859 372.729 245.043 350.491C244.804 344.029 243.048 337.984 240.143 332.671C240.028 332.462 239.909 332.258 239.794 332.049C239.65 331.8 239.511 331.547 239.361 331.303C232.357 319.413 219.432 311.428 204.632 311.428Z" fill="#D9D9D9"/>
<path d="M266.087 168.763C266.087 168.763 250.715 140.814 204.637 140.814C158.56 140.814 143.187 168.763 143.187 168.763L141.954 238.959L163.331 246.874L167.251 268.669L204.637 280.688L242.023 268.669L245.944 246.874L267.321 238.959L266.087 168.763ZM167.335 226.164C158.087 222.801 153.043 205.145 153.043 205.145L196.016 216.612C196.021 216.612 173.171 228.283 167.335 226.164ZM213.338 259.311C209.697 256.023 206.896 253.252 204.418 250.605C201.941 253.252 199.14 256.018 195.498 259.311C192.404 255.68 190.349 251.978 187.588 247.013C193.971 238.362 197.309 233.556 204.418 227.278C211.527 233.556 214.866 238.367 221.248 247.013C218.492 251.978 216.433 255.68 213.338 259.311ZM241.168 226.164C235.332 228.283 212.488 216.612 212.488 216.612L255.461 205.145C255.461 205.145 250.416 222.801 241.168 226.164Z" fill="#D9D9D9"/>
<path d="M97.2744 120.969C97.2744 120.969 92.2746 111.875 77.2803 111.875C62.286 111.875 57.2863 120.969 57.2863 120.969L56.8833 143.809L63.8382 146.386L65.1118 153.48L77.2754 157.39L89.4389 153.48L90.7125 146.386L97.6674 143.809L97.2744 120.969Z" fill="#D9D9D9"/>
<path d="M351.491 120.969C351.491 120.969 346.491 111.875 331.497 111.875C316.502 111.875 311.503 120.969 311.503 120.969L311.1 143.809L318.054 146.386L319.328 153.48L331.492 157.39L343.655 153.48L344.929 146.386L351.884 143.809L351.491 120.969Z" fill="#D9D9D9"/>
<path d="M224.631 47.3402C224.631 47.3402 219.632 38.2461 204.637 38.2461C189.643 38.2461 184.643 47.3402 184.643 47.3402L184.24 70.1799L191.195 72.7569L192.469 79.8511L204.632 83.7613L216.796 79.8511L218.069 72.7569L225.024 70.1799L224.631 47.3402Z" fill="#D9D9D9"/>
</svg>
