<svg width="409" height="481" viewBox="0 0 409 481" fill="none" xmlns="http://www.w3.org/2000/svg">
<path d="M188.172 411.753C188.172 415.18 188.446 418.601 188.994 421.986L190.534 431.506H218.969L220.51 421.986C221.057 418.601 221.331 415.18 221.331 411.753V357.538H188.172V411.753Z" fill="#D9D9D9"/>
<path d="M192.452 444.225C192.463 455.352 195.383 466.309 200.965 476.144L203.466 480.547H205.507L207.988 476.175C213.591 466.319 216.516 455.331 216.516 444.178V438.297H192.447L192.452 444.225Z" fill="#D9D9D9"/>
<path d="M126.898 370.592L103.098 353.299L80.9884 383.729C78.854 386.665 76.9675 389.776 75.3964 393.037C71.8458 400.397 71.391 414.201 75.0863 416.884C78.7816 419.566 92.3069 414.46 98.1522 408.749C100.576 406.382 102.778 403.787 104.778 401.043L126.898 370.592Z" fill="#D9D9D9"/>
<path d="M112.902 339.81L106.337 348.846L130.136 366.137L136.701 357.102L112.902 339.81Z" fill="#D9D9D9"/>
<path d="M28.4727 308.17L58.3762 298.454L50.7789 275.083L20.8909 284.794C18.007 285.73 15.2058 286.908 12.539 288.34C6.52834 291.57 -0.56249 300.676 0.61587 304.304C1.79423 307.932 13.4486 311.121 20.2035 310.134C23.0099 309.721 25.7749 309.049 28.4727 308.17Z" fill="#D9D9D9"/>
<path d="M396.457 288.076C393.951 286.763 391.32 285.678 388.622 284.804L358.714 275.088L351.116 298.464L381.009 308.175C383.893 309.11 386.849 309.808 389.847 310.216C396.612 311.136 407.698 307.937 408.877 304.309C410.06 300.676 402.504 291.249 396.457 288.076Z" fill="#D9D9D9"/>
<path d="M328.522 383.75L306.396 353.299L282.597 370.592L304.706 401.022C306.841 403.958 309.213 406.713 311.828 409.219C317.73 414.868 330.718 419.571 334.413 416.884C338.109 414.201 337.432 399.756 333.804 392.433C332.305 389.394 330.517 386.494 328.522 383.75Z" fill="#D9D9D9"/>
<path d="M296.595 339.797L272.796 357.089L279.361 366.124L303.16 348.833L296.595 339.797Z" fill="#D9D9D9"/>
<path d="M182.948 429.95L181.847 423.138C181.242 419.386 180.932 415.556 180.932 411.752V374.014V373.626C176.73 372.877 168.528 371.207 168.528 371.207C163.644 369.858 158.874 368.246 154.233 366.38C154.233 366.38 147.442 363.067 144.046 361.362C143.685 361.181 143.318 360.995 142.956 360.804L142.723 361.124L137.002 368.99L110.628 405.292C110.442 405.55 110.251 405.809 110.06 406.062C107.967 408.868 105.713 411.458 103.352 413.783C107.047 415.949 110.815 418.001 114.655 419.928C116.763 417.639 118.774 415.184 120.665 412.584L121.141 411.933C136.418 419.396 152.843 424.874 170.074 428.037L171.774 438.534C176.208 439.263 180.684 439.852 185.211 440.286V438.741H184.369L182.948 429.95Z" fill="#D9D9D9"/>
<path d="M107.687 334.668L107.454 334.988L101.495 343.19L75.1323 379.477C74.9979 379.657 74.8687 379.843 74.7395 380.03C72.7239 382.862 70.9357 385.802 69.4265 388.785C66.2481 385.89 63.1626 382.888 60.1857 379.792C61.6638 377.197 63.3073 374.655 65.1007 372.184L65.8398 371.171C53.4411 358.008 42.8979 343.087 34.6236 326.817L34.5357 326.848C31.2435 327.923 27.9204 328.745 24.6333 329.303C22.7159 325.432 20.9225 321.494 19.2584 317.489C19.9509 317.447 20.6176 317.38 21.2533 317.287C23.9046 316.899 26.6128 316.295 29.3158 315.483C29.7809 315.349 30.2409 315.204 30.706 315.054L67.4936 303.1L55.4258 265.961L18.6537 277.91C18.3436 278.014 18.0335 278.112 17.7286 278.225C14.7103 279.254 11.8161 280.515 9.11828 281.962C8.86503 282.102 8.60145 282.246 8.3327 282.407C7.43343 278.189 6.66853 273.925 6.04834 269.615C8.84953 268.271 69.349 249.211 69.349 249.211C71.1889 277.998 82.0112 304.346 99.0354 325.479C99.0354 325.479 104.519 331.391 107.351 334.322C107.465 334.44 107.573 334.554 107.687 334.668Z" fill="#D9D9D9"/>
<path d="M403.445 269.615C402.82 273.936 402.055 278.21 401.156 282.432C400.706 282.153 400.257 281.9 399.817 281.668C397.305 280.35 394.602 279.192 391.765 278.225C391.465 278.122 391.16 278.019 390.856 277.921L354.068 265.966L341.995 303.105L378.772 315.054C379.237 315.204 379.702 315.349 380.173 315.489C383.067 316.357 385.987 316.992 388.871 317.385C389.295 317.442 389.744 317.489 390.22 317.52C388.561 321.515 386.773 325.448 384.86 329.308C381.548 328.745 378.219 327.918 374.937 326.853L374.865 326.828C366.591 343.092 356.047 358.013 343.654 371.171L344.408 372.205C346.202 374.675 347.845 377.218 349.313 379.792C346.331 382.888 343.246 385.89 340.067 388.785C338.574 385.823 336.785 382.882 334.749 380.03C334.625 379.849 334.501 379.673 334.372 379.497L307.998 343.19L302.039 334.988L301.807 334.668C301.926 334.554 302.034 334.44 302.148 334.322C304.975 331.391 310.458 325.479 310.458 325.479C327.482 304.346 338.305 277.998 340.145 249.211C340.145 249.211 400.665 268.282 403.445 269.615Z" fill="#D9D9D9"/>
<path d="M298.851 405.277L277.754 376.236L275.356 372.934L272.492 368.991L266.771 361.119L266.539 360.799C266.177 360.99 265.815 361.176 265.448 361.357C262.058 363.068 255.262 366.381 255.262 366.381C250.62 368.246 245.85 369.859 240.966 371.208C240.966 371.208 232.764 372.877 228.562 373.626V374.014V411.753C228.562 415.556 228.252 419.386 227.648 423.138L226.547 429.95L225.126 438.741H223.746V440.333C228.454 439.899 233.11 439.294 237.721 438.534L239.421 428.038C256.657 424.875 273.082 419.396 288.359 411.928L288.819 412.564C290.7 415.153 292.716 417.619 294.845 419.924C298.685 418.001 302.453 415.949 306.148 413.779C303.766 411.432 301.512 408.843 299.435 406.057C299.233 405.799 299.042 405.54 298.851 405.277Z" fill="#D9D9D9"/>
<path d="M13.0361 188.965C15.5427 190.278 18.1733 191.364 20.8711 192.237L50.7798 201.953L58.3771 178.577L28.484 168.866C25.6001 167.931 22.6439 167.233 19.6463 166.825C12.881 165.905 1.79515 169.104 0.616791 172.732C-0.561568 176.36 6.98924 185.792 13.0361 188.965Z" fill="#D9D9D9"/>
<path d="M87.7379 167.889C77.267 185.673 70.7344 206.051 69.3441 227.825C69.3441 227.825 8.82397 208.754 6.04346 207.421C6.66881 203.1 7.43372 198.826 8.33299 194.604C8.78263 194.883 9.23226 195.136 9.67157 195.368C12.1833 196.686 14.8863 197.844 17.7237 198.81C18.0234 198.914 18.3284 199.017 18.6333 199.115L55.4209 211.07L67.4939 173.931L30.7167 161.982C30.2515 161.832 29.7864 161.687 29.3161 161.547C26.4218 160.679 23.5018 160.043 20.6179 159.651C20.1941 159.594 19.7445 159.547 19.269 159.516C20.928 155.521 22.7162 151.588 24.6285 147.728C27.6571 148.244 30.7012 148.978 33.7039 149.914L33.8486 149.96L87.7379 167.889Z" fill="#D9D9D9"/>
<path d="M396.458 188.965C393.951 190.278 391.32 191.364 388.623 192.237L358.714 201.953L351.117 178.577L381.01 168.866C383.894 167.931 386.85 167.233 389.848 166.825C396.613 165.905 407.699 169.104 408.877 172.732C410.061 176.36 402.505 185.792 396.458 188.965Z" fill="#D9D9D9"/>
<path d="M321.755 167.889C332.226 185.673 338.759 206.051 340.149 227.825C340.149 227.825 400.669 208.754 403.45 207.421C402.824 203.1 402.06 198.826 401.16 194.604C400.711 194.883 400.261 195.136 399.822 195.368C397.31 196.686 394.607 197.844 391.77 198.81C391.47 198.914 391.165 199.017 390.86 199.115L354.072 211.07L341.999 173.931L378.777 161.982C379.242 161.832 379.707 161.687 380.177 161.547C383.071 160.679 385.991 160.043 388.875 159.651C389.299 159.594 389.749 159.547 390.224 159.516C388.565 155.521 386.777 151.588 384.865 147.728C381.836 148.244 378.792 148.978 375.789 149.914L375.645 149.96L321.755 167.889Z" fill="#D9D9D9"/>
<path d="M286.751 201.011C286.751 201.011 268.306 167.479 213.016 167.479V271.465C221.363 278.881 225.368 284.644 232.95 294.913C229.648 300.862 227.177 305.306 223.461 309.663C219.223 305.828 215.926 302.583 213.016 299.492V335.318L257.876 320.894L262.58 294.737L288.23 285.238L286.751 201.011ZM256.853 269.888C249.85 272.436 222.438 258.43 222.438 258.43L274.001 244.667C274.001 244.667 267.949 265.857 256.853 269.888Z" fill="#D9D9D9"/>
<path d="M120.235 271.284L145.885 280.783L150.588 306.94L195.449 321.364V285.538C192.539 288.628 189.247 291.874 185.004 295.709C181.293 291.352 178.817 286.907 175.515 280.959C183.092 270.684 187.102 264.927 195.449 257.51V153.525C140.159 153.525 121.713 187.057 121.713 187.057L120.235 271.284ZM134.458 230.713L186.022 244.476C186.022 244.476 158.61 258.482 151.607 255.934C140.516 251.903 134.458 230.713 134.458 230.713Z" fill="#D9D9D9"/>
<path d="M221.325 123.293V69.0782C221.325 65.6517 221.052 62.2303 220.504 58.8451L218.964 49.3252H190.528L188.988 58.8451C188.44 62.2303 188.166 65.6517 188.166 69.0782V123.293H221.325Z" fill="#D9D9D9"/>
<path d="M217.046 36.6105C217.036 25.4833 214.116 14.5266 208.534 4.69143L206.033 0.288086H203.991L201.511 4.66042C195.908 14.5163 192.983 25.504 192.983 36.657V42.5385H217.051L217.046 36.6105Z" fill="#D9D9D9"/>
<path d="M104.787 75.8124C102.652 72.8768 100.28 70.1221 97.6648 67.6155C91.7627 61.9666 78.7749 57.2635 75.0796 59.951C71.3843 62.6333 72.0614 77.0786 75.6895 84.402C77.1934 87.4409 78.9765 90.3351 80.9714 93.0846L103.097 123.536L126.896 106.243L104.787 75.8124Z" fill="#D9D9D9"/>
<path d="M130.139 110.702L106.34 127.994L112.905 137.03L136.704 119.738L130.139 110.702Z" fill="#D9D9D9"/>
<path d="M328.504 93.1048C330.639 90.1693 332.525 87.058 334.096 83.7968C337.647 76.4373 338.101 62.6329 334.406 59.9506C330.711 57.2682 317.186 62.3745 311.34 68.0854C308.916 70.4524 306.715 73.0469 304.715 75.7912L282.589 106.243L306.389 123.535L328.504 93.1048Z" fill="#D9D9D9"/>
<path d="M279.361 110.707L272.796 119.742L296.595 137.034L303.16 127.999L279.361 110.707Z" fill="#D9D9D9"/>
</svg>
