<svg width="60" height="60" viewBox="0 0 60 60" fill="none" xmlns="http://www.w3.org/2000/svg">
<path fill-rule="evenodd" clip-rule="evenodd" d="M55.1874 4.05244C51.5357 0.715137 44.6191 0 30.1088 0C15.7195 0 8.12576 0.524434 4.20799 4.60072C0.677152 8.27175 0 15.1371 0 29.8689C0 44.3623 0.846439 50.7271 3.72431 54.0882C6.94076 57.8546 17.0979 60 30.133 60C42.636 60 53.156 57.9499 56.4934 53.826C59.081 50.6317 60 44.6007 60 29.7259C59.9758 15.6377 59.468 7.96186 55.1874 4.05244ZM30.3748 43.9333C22.5151 43.9333 16.1548 37.6639 16.1548 29.9166C16.1548 22.1693 22.5151 15.8999 30.3748 15.8999C38.2346 15.8999 44.5949 22.1693 44.5949 29.9166C44.5949 37.6639 38.2104 43.9333 30.3748 43.9333ZM47.1584 16.1383C44.9819 16.1383 43.1923 14.3981 43.1923 12.2288C43.1923 10.0834 44.9577 8.31943 47.1584 8.31943C49.3349 8.31943 51.1246 10.0596 51.1246 12.2288C51.1004 14.3981 49.3349 16.1383 47.1584 16.1383Z" fill="#1F1D21"/>
</svg>
