<svg width="60" height="60" viewBox="0 0 60 60" fill="none" xmlns="http://www.w3.org/2000/svg">
<path fill-rule="evenodd" clip-rule="evenodd" d="M55.1874 4.05244C51.5357 0.715137 44.6191 0 30.1088 0C15.7195 0 8.12575 0.524434 4.20798 4.60072C0.677145 8.27175 0 15.1371 0 29.8689C0 44.3623 0.846431 50.7271 3.7243 54.0882C6.94075 57.8546 17.0979 60 30.133 60C42.636 60 53.156 57.9499 56.4934 53.826C59.081 50.6317 60 44.6007 60 29.7259C59.9758 15.6377 59.468 7.96186 55.1874 4.05244ZM46.2878 46.913C40.1209 36.2336 33.2769 35.9952 33.2769 35.9952V46.913C2.17654 46.913 4.74003 16.1621 4.74003 16.1621H14.2443C14.7279 34.3743 25.2479 36.9964 25.2479 36.9964V16.1383H33.2527V28.0334C40.7497 26.174 45.2721 16.1383 45.2721 16.1383H53.2769C52.2128 25.8641 42.2733 31.0131 42.2733 31.0131C52.5514 35.7807 55.2842 46.8892 55.2842 46.8892H46.2878V46.913Z" fill="#1F1D21"/>
</svg>
