<svg width="832" height="1209" viewBox="0 0 832 1209" fill="none" xmlns="http://www.w3.org/2000/svg">
<path fill-rule="evenodd" clip-rule="evenodd" d="M-325.673 1157.67V1209H-323.673V1157.67H-246.791V1209H-244.791V1157.67H-167.909V1209H-165.909V1157.67H-89.0274V1209H-87.0274V1157.67H-10.1451V1209H-8.14511V1157.67H68.7366V1209H70.7366V1157.67H147.618V1209H149.618V1157.67H226.5V1209H228.5V1157.67H305.382V1209H307.382V1157.67H384.263V1209H386.263V1157.67H463.145V1209H465.145V1157.67H542.027V1209H544.027V1157.67H620.909V1209H622.909V1157.67H699.791V1209H701.791V1157.67H778.672V1209H780.672V1157.67H832V1155.67H780.672V1078.79H832V1076.79H780.672V999.909H832V997.909H780.672V921.027H832V919.027H780.672V842.145H832V840.145H780.672V763.263H832V761.263H780.672V684.382H832V682.382H780.672V605.5H832V603.5H780.672V526.618H832V524.618H780.672V447.737H832V445.737H780.672V368.855H832V366.855H780.672V289.973H832V287.973H780.672V211.091H832V209.091H780.672V132.209H832V130.209H780.672V53.3275H832V51.3275H780.672V0H778.672V51.3275L701.791 51.3275V0H699.791V51.3275H622.909V0H620.909V51.3275L544.027 51.3275V0H542.027V51.3275L465.145 51.3275V0H463.145V51.3275L386.263 51.3275V0H384.263V51.3275L307.382 51.3275V0H305.382V51.3275L228.5 51.3275V0H226.5V51.3275L149.618 51.3275V0H147.618V51.3275L70.7366 51.3275V0H68.7366V51.3275L-8.14511 51.3274V0H-10.1451V51.3274L-87.0274 51.3274V0H-89.0274V51.3274L-165.909 51.3274V0H-167.909V51.3274L-244.791 51.3274V0H-246.791V51.3274L-323.673 51.3274V0H-325.673V51.3274L-377 51.3274V53.3274L-325.673 53.3274V130.209H-377V132.209H-325.673V209.091H-377V211.091H-325.673V287.973H-377V289.973H-325.673V366.855H-377V368.855H-325.673V445.737H-377V447.737H-325.673V524.618H-377V526.618H-325.673V603.5H-377V605.5H-325.673V682.382H-377V684.382H-325.673V761.263H-377V763.263H-325.673V840.145H-377V842.145H-325.673V919.027H-377V921.027H-325.673V997.909H-377V999.909H-325.673V1076.79H-377V1078.79H-325.673V1155.67H-377V1157.67H-325.673ZM778.672 53.3275L701.791 53.3275V130.209L778.672 130.209V53.3275ZM778.672 132.209L701.791 132.209V209.091L778.672 209.091V132.209ZM778.672 211.091L701.791 211.091V287.973L778.672 287.973V211.091ZM778.672 289.973L701.791 289.973V366.855L778.672 366.855V289.973ZM778.672 368.855L701.791 368.855V445.737L778.672 445.737V368.855ZM778.672 447.737L701.791 447.737V524.618L778.672 524.618V447.737ZM778.672 526.618L701.791 526.618V603.5L778.672 603.5V526.618ZM778.672 605.5L701.791 605.5V682.382L778.672 682.382V605.5ZM778.672 684.382L701.791 684.382V761.263L778.672 761.263V684.382ZM778.672 763.263L701.791 763.263V840.145L778.672 840.145V763.263ZM778.672 842.145L701.791 842.145V919.027L778.672 919.027V842.145ZM778.672 921.027L701.791 921.027V997.909L778.672 997.909V921.027ZM778.672 999.909L701.791 999.909V1076.79H778.672V999.909ZM778.672 1078.79H701.791V1155.67H778.672V1078.79ZM699.791 1078.79V1155.67H622.909V1078.79H699.791ZM699.791 999.909V1076.79H622.909V999.909H699.791ZM699.791 921.027V997.909H622.909V921.027H699.791ZM699.791 842.145V919.027H622.909V842.145H699.791ZM699.791 763.263V840.145H622.909V763.263H699.791ZM699.791 684.382V761.263H622.909V684.382H699.791ZM699.791 605.5V682.382H622.909V605.5H699.791ZM699.791 526.618V603.5H622.909V526.618H699.791ZM699.791 447.737V524.618H622.909V447.737H699.791ZM699.791 368.855V445.737H622.909V368.855H699.791ZM699.791 289.973V366.855H622.909V289.973H699.791ZM699.791 211.091V287.973H622.909V211.091H699.791ZM699.791 132.209V209.091H622.909V132.209H699.791ZM699.791 53.3275V130.209H622.909V53.3275H699.791ZM620.909 53.3275L544.027 53.3275V130.209L620.909 130.209V53.3275ZM620.909 132.209L544.027 132.209V209.091L620.909 209.091V132.209ZM620.909 211.091L544.027 211.091V287.973L620.909 287.973V211.091ZM620.909 289.973L544.027 289.973V366.855L620.909 366.855V289.973ZM620.909 368.855L544.027 368.855V445.737L620.909 445.737V368.855ZM620.909 447.737L544.027 447.737V524.618H620.909V447.737ZM620.909 526.618H544.027V603.5H620.909V526.618ZM620.909 605.5H544.027V682.382H620.909V605.5ZM620.909 684.382H544.027V761.263H620.909V684.382ZM620.909 763.263H544.027V840.145H620.909V763.263ZM620.909 842.145H544.027V919.027H620.909V842.145ZM620.909 921.027H544.027V997.909H620.909V921.027ZM620.909 999.909H544.027V1076.79H620.909V999.909ZM620.909 1078.79H544.027V1155.67H620.909V1078.79ZM542.027 1078.79V1155.67H465.145V1078.79H542.027ZM542.027 999.909V1076.79H465.145V999.909H542.027ZM542.027 921.027V997.909H465.145V921.027H542.027ZM542.027 842.145V919.027H465.145V842.145H542.027ZM542.027 763.263V840.145H465.145V763.263H542.027ZM542.027 684.382V761.263H465.145V684.382H542.027ZM542.027 605.5V682.382H465.145V605.5H542.027ZM542.027 526.618V603.5H465.145V526.618H542.027ZM542.027 447.737V524.618H465.145V447.737H542.027ZM542.027 368.855V445.737H465.145V368.855H542.027ZM542.027 289.973V366.855H465.145V289.973H542.027ZM542.027 211.091V287.973H465.145V211.091H542.027ZM542.027 132.209V209.091H465.145V132.209H542.027ZM542.027 53.3275V130.209H465.145V53.3275L542.027 53.3275ZM463.145 53.3275L386.263 53.3275V130.209L463.145 130.209V53.3275ZM463.145 132.209L386.263 132.209V209.091L463.145 209.091V132.209ZM463.145 211.091L386.263 211.091V287.973H463.145V211.091ZM463.145 289.973H386.263V366.855H463.145V289.973ZM463.145 368.855H386.263V445.737H463.145V368.855ZM463.145 447.737H386.263V524.618H463.145V447.737ZM463.145 526.618H386.263V603.5H463.145V526.618ZM463.145 605.5H386.263V682.382H463.145V605.5ZM463.145 684.382H386.263V761.263H463.145V684.382ZM463.145 763.263H386.263V840.145H463.145V763.263ZM463.145 842.145H386.263V919.027H463.145V842.145ZM463.145 921.027H386.263V997.909H463.145V921.027ZM463.145 999.909H386.263V1076.79H463.145V999.909ZM463.145 1078.79H386.263V1155.67H463.145V1078.79ZM384.263 1078.79V1155.67H307.382V1078.79H384.263ZM384.263 999.909V1076.79H307.382V999.909H384.263ZM384.263 921.027V997.909H307.382V921.027H384.263ZM384.263 842.145V919.027H307.382V842.145H384.263ZM384.263 763.263V840.145H307.382V763.263H384.263ZM384.263 684.382V761.263H307.382V684.382H384.263ZM384.263 605.5V682.382H307.382V605.5H384.263ZM384.263 526.618V603.5H307.382V526.618H384.263ZM384.263 447.737V524.618H307.382V447.737H384.263ZM384.263 368.855V445.737H307.382V368.855H384.263ZM384.263 289.973V366.855H307.382V289.973H384.263ZM384.263 211.091V287.973H307.382V211.091H384.263ZM384.263 132.209V209.091H307.382V132.209H384.263ZM384.263 53.3275V130.209H307.382V53.3275L384.263 53.3275ZM305.382 53.3275L228.5 53.3275V130.209H305.382V53.3275ZM305.382 132.209H228.5V209.091H305.382V132.209ZM305.382 211.091H228.5V287.973H305.382V211.091ZM305.382 289.973H228.5V366.855H305.382V289.973ZM305.382 368.855H228.5V445.737H305.382V368.855ZM305.382 447.737H228.5V524.618H305.382V447.737ZM305.382 526.618H228.5V603.5H305.382V526.618ZM305.382 605.5H228.5V682.382H305.382V605.5ZM305.382 684.382H228.5V761.263H305.382V684.382ZM305.382 763.263H228.5V840.145H305.382V763.263ZM305.382 842.145H228.5V919.027H305.382V842.145ZM305.382 921.027H228.5V997.909H305.382V921.027ZM305.382 999.909H228.5V1076.79H305.382V999.909ZM305.382 1078.79H228.5V1155.67H305.382V1078.79ZM226.5 1078.79V1155.67H149.618V1078.79H226.5ZM226.5 999.909V1076.79H149.618V999.909H226.5ZM226.5 921.027V997.909H149.618V921.027H226.5ZM226.5 842.145V919.027H149.618V842.145H226.5ZM226.5 763.263V840.145H149.618V763.263H226.5ZM226.5 684.382V761.263H149.618V684.382H226.5ZM226.5 605.5V682.382H149.618V605.5H226.5ZM226.5 526.618V603.5H149.618V526.618H226.5ZM226.5 447.737V524.618H149.618V447.737H226.5ZM226.5 368.855V445.737H149.618V368.855H226.5ZM226.5 289.973V366.855H149.618V289.973H226.5ZM226.5 211.091V287.973H149.618V211.091H226.5ZM226.5 132.209V209.091H149.618V132.209H226.5ZM226.5 53.3275V130.209H149.618V53.3275L226.5 53.3275ZM147.618 53.3275L70.7366 53.3275V130.209H147.618V53.3275ZM147.618 132.209H70.7366V209.091H147.618V132.209ZM147.618 211.091H70.7366V287.973H147.618V211.091ZM147.618 289.973H70.7366V366.855H147.618V289.973ZM147.618 368.855H70.7366V445.737H147.618V368.855ZM147.618 447.737H70.7366V524.618H147.618V447.737ZM147.618 526.618H70.7366V603.5H147.618V526.618ZM147.618 605.5H70.7366V682.382H147.618V605.5ZM147.618 684.382H70.7366V761.263H147.618V684.382ZM147.618 763.263H70.7366V840.145H147.618V763.263ZM147.618 842.145H70.7366V919.027H147.618V842.145ZM147.618 921.027H70.7366V997.909H147.618V921.027ZM147.618 999.909H70.7366V1076.79H147.618V999.909ZM147.618 1078.79H70.7366V1155.67H147.618V1078.79ZM68.7366 1078.79V1155.67H-8.14511V1078.79H68.7366ZM68.7366 999.909V1076.79H-8.14511V999.909H68.7366ZM68.7366 921.027V997.909H-8.14511V921.027H68.7366ZM68.7366 842.145V919.027H-8.14511V842.145H68.7366ZM68.7366 763.263V840.145H-8.14511V763.263H68.7366ZM68.7366 684.382V761.263H-8.14511V684.382H68.7366ZM68.7366 605.5V682.382H-8.14511V605.5H68.7366ZM68.7366 526.618V603.5H-8.14511V526.618H68.7366ZM68.7366 447.737V524.618H-8.14511V447.737H68.7366ZM68.7366 368.855V445.737H-8.14511V368.855H68.7366ZM68.7366 289.973V366.855H-8.14511V289.973H68.7366ZM68.7366 211.091V287.973H-8.14511V211.091H68.7366ZM68.7366 132.209V209.091H-8.14511V132.209H68.7366ZM68.7366 53.3275V130.209H-8.14511V53.3274L68.7366 53.3275ZM-10.1451 53.3274L-87.0274 53.3274V130.209H-10.1451V53.3274ZM-10.1451 132.209H-87.0274V209.091H-10.1451V132.209ZM-10.1451 211.091H-87.0274V287.973H-10.1451V211.091ZM-10.1451 289.973H-87.0274V366.855H-10.1451V289.973ZM-10.1451 368.855H-87.0274V445.737H-10.1451V368.855ZM-10.1451 447.737H-87.0274V524.618H-10.1451V447.737ZM-10.1451 526.618H-87.0274V603.5H-10.1451V526.618ZM-10.1451 605.5H-87.0274V682.382H-10.1451V605.5ZM-10.1451 684.382H-87.0274V761.263H-10.1451V684.382ZM-10.1451 763.263H-87.0274V840.145H-10.1451V763.263ZM-10.1451 842.145H-87.0274V919.027H-10.1451V842.145ZM-10.1451 921.027H-87.0274V997.909H-10.1451V921.027ZM-10.1451 999.909H-87.0274V1076.79H-10.1451V999.909ZM-10.1451 1078.79H-87.0274V1155.67H-10.1451V1078.79ZM-89.0274 1078.79V1155.67H-165.909V1078.79H-89.0274ZM-89.0274 999.909V1076.79H-165.909V999.909H-89.0274ZM-89.0274 921.027V997.909H-165.909V921.027H-89.0274ZM-89.0274 842.145V919.027H-165.909V842.145H-89.0274ZM-89.0274 763.263V840.145H-165.909V763.263H-89.0274ZM-89.0274 684.382V761.263H-165.909V684.382H-89.0274ZM-89.0274 605.5V682.382H-165.909V605.5H-89.0274ZM-89.0274 526.618V603.5H-165.909V526.618H-89.0274ZM-89.0274 447.737V524.618H-165.909V447.737H-89.0274ZM-89.0274 368.855V445.737H-165.909V368.855H-89.0274ZM-89.0274 289.973V366.855H-165.909V289.973H-89.0274ZM-89.0274 211.091V287.973H-165.909V211.091H-89.0274ZM-89.0274 132.209V209.091H-165.909V132.209H-89.0274ZM-89.0274 53.3274V130.209H-165.909V53.3274L-89.0274 53.3274ZM-167.909 53.3274L-244.791 53.3274V130.209H-167.909V53.3274ZM-167.909 132.209H-244.791V209.091H-167.909V132.209ZM-167.909 211.091H-244.791V287.973H-167.909V211.091ZM-167.909 289.973H-244.791V366.855H-167.909V289.973ZM-167.909 368.855H-244.791V445.737H-167.909V368.855ZM-167.909 447.737H-244.791V524.618H-167.909V447.737ZM-167.909 526.618H-244.791V603.5H-167.909V526.618ZM-167.909 605.5H-244.791V682.382H-167.909V605.5ZM-167.909 684.382H-244.791V761.263H-167.909V684.382ZM-167.909 763.263H-244.791V840.145H-167.909V763.263ZM-167.909 842.145H-244.791V919.027H-167.909V842.145ZM-167.909 921.027H-244.791V997.909H-167.909V921.027ZM-167.909 999.909H-244.791V1076.79H-167.909V999.909ZM-167.909 1078.79H-244.791V1155.67H-167.909V1078.79ZM-246.791 1078.79V1155.67H-323.673V1078.79H-246.791ZM-246.791 999.909V1076.79H-323.673V999.909H-246.791ZM-246.791 921.027V997.909H-323.673V921.027H-246.791ZM-246.791 842.145V919.027H-323.673V842.145H-246.791ZM-246.791 763.263V840.145H-323.673V763.263H-246.791ZM-246.791 684.382V761.263H-323.673V684.382H-246.791ZM-246.791 605.5V682.382H-323.673V605.5H-246.791ZM-246.791 526.618V603.5H-323.673V526.618H-246.791ZM-246.791 447.737V524.618H-323.673V447.737H-246.791ZM-246.791 368.855V445.737H-323.673V368.855H-246.791ZM-246.791 289.973V366.855H-323.673V289.973H-246.791ZM-246.791 211.091V287.973H-323.673V211.091H-246.791ZM-246.791 132.209V209.091H-323.673V132.209H-246.791ZM-246.791 53.3274V130.209H-323.673V53.3274L-246.791 53.3274Z" fill="url(#paint0_radial_335_12770)"/>
<defs>
<radialGradient id="paint0_radial_335_12770" cx="0" cy="0" r="1" gradientUnits="userSpaceOnUse" gradientTransform="translate(227.5 604.5) rotate(90) scale(604.5)">
<stop stop-color="#D9D9D9"/>
<stop offset="1" stop-color="#D9D9D9" stop-opacity="0"/>
</radialGradient>
</defs>
</svg>
