<svg width="212" height="70" viewBox="0 0 212 70" fill="none" xmlns="http://www.w3.org/2000/svg">
<path d="M112.347 36.9082C110.321 36.9082 108.538 38.3262 108.012 40.3924C108.012 40.4735 107.971 40.595 107.971 40.676C107.931 41.0001 107.85 41.2838 107.85 41.5674V44.4439C107.85 44.8896 107.89 45.2947 107.971 45.6188C108.457 47.5635 110.199 48.941 112.185 48.941C115.102 48.941 116.965 46.5912 116.965 42.8233C116.965 39.8658 115.547 36.9082 112.347 36.9082Z" fill="white" fill-opacity="0.3"/>
<path d="M72.7639 16.8546C72.7639 14.1806 71.1028 12.5195 67.6996 12.5195C66.8488 12.5195 66.2411 12.6005 65.7954 12.6816V21.5543C66.2006 21.6353 66.8083 21.6353 67.416 21.6353C70.9002 21.6353 72.7639 19.8932 72.7639 16.8546Z" fill="white" fill-opacity="0.3"/>
<path d="M74.1821 31.6821C73.8985 32.8571 73.5744 33.9509 73.2503 35.0043L71.103 41.3246H77.2612L75.0734 35.0448C74.7493 33.8699 74.4252 32.776 74.1821 31.6821Z" fill="white" fill-opacity="0.3"/>
<path d="M118.546 15.5579C116.641 15.5579 115.791 17.1379 115.791 18.6775C115.791 20.4601 116.884 21.7566 118.464 21.7566C120.004 21.7566 121.179 20.4601 121.179 18.5965C121.26 17.2595 120.49 15.5579 118.546 15.5579Z" fill="white" fill-opacity="0.3"/>
<path d="M129.687 19.9736V18.5556C127.904 18.5151 125.878 18.7987 125.878 20.3787C125.878 21.3511 126.567 21.7968 127.377 21.7968C128.552 21.7968 129.322 21.1485 129.565 20.4598C129.687 20.2977 129.687 20.0951 129.687 19.9736Z" fill="white" fill-opacity="0.3"/>
<path d="M80.3404 15.5579C78.4362 15.5579 77.5854 17.1379 77.5854 18.6775C77.5854 20.4601 78.6793 21.7566 80.2594 21.7566C81.799 21.7566 82.9739 20.4601 82.9739 18.5965C83.0144 17.2595 82.2446 15.5579 80.3404 15.5579Z" fill="white" fill-opacity="0.3"/>
<path d="M93.8721 36.9082C91.8464 36.9082 90.1043 38.3262 89.5371 40.3924C89.5371 40.4735 89.4965 40.595 89.4965 40.676C89.456 41.0001 89.375 41.2838 89.375 41.5674V44.4439C89.375 44.8896 89.4155 45.2947 89.4965 45.6188C89.9827 47.5635 91.7248 48.941 93.71 48.941C96.6676 48.941 98.4908 46.5912 98.4908 42.8233C98.5313 39.8658 97.0728 36.9082 93.8721 36.9082Z" fill="white" fill-opacity="0.3"/>
<path d="M192.404 15.4766C190.742 15.4766 190.054 16.8541 189.892 17.8669H194.632C194.672 16.9351 194.227 15.4766 192.404 15.4766Z" fill="white" fill-opacity="0.3"/>
<path d="M161.977 36.7871C158.655 36.7871 157.196 39.9068 157.196 42.9453C157.196 46.4701 159.182 49.063 161.896 49.063H161.936C164.691 49.063 166.717 46.4701 166.717 42.8643C166.677 39.9067 165.218 36.7871 161.977 36.7871Z" fill="white" fill-opacity="0.3"/>
<path d="M189.203 36.6255C186.529 36.6255 185.232 38.8943 184.908 40.9606H193.092C193.052 40.2313 192.89 38.6917 191.877 37.6384C191.147 36.9901 190.256 36.6255 189.203 36.6255Z" fill="white" fill-opacity="0.3"/>
<path d="M202.046 0H9.35886C4.21351 0 0 4.17301 0 9.35887V59.7994C0 64.9448 4.173 69.1583 9.35886 69.1583H202.046C207.191 69.1583 211.405 64.9853 211.405 59.7994V9.35887C211.364 4.21353 207.191 0 202.046 0ZM192.525 14.4232C195.442 14.4232 196.212 16.7325 196.212 18.2315C196.212 18.5151 196.212 18.7582 196.171 18.9203H189.892C189.932 20.9055 191.31 21.7158 192.93 21.7158C194.105 21.7158 194.834 21.5132 195.402 21.3107L195.685 22.3235C195.118 22.5666 194.105 22.8502 192.687 22.8502C189.932 22.8502 188.271 21.1891 188.271 18.7987C188.312 16.3274 189.932 14.4232 192.525 14.4232ZM178.71 10.8579H180.33V15.8817H180.371C180.614 15.4766 181.019 15.0714 181.546 14.8688C182.032 14.5852 182.599 14.4637 183.207 14.4637C184.422 14.4637 186.326 15.1119 186.326 17.9074V22.6881H184.706V18.0695C184.706 16.773 184.179 15.6791 182.639 15.6791C181.586 15.6791 180.776 16.3273 180.452 17.1376C180.371 17.3402 180.33 17.5428 180.33 17.8264V22.6881H178.71V10.8579ZM159.789 14.6258L159.87 15.9222H159.911C160.356 15.1929 161.41 14.4232 162.868 14.4232C164.124 14.4232 166.029 15.0714 166.029 17.8669V22.6881H164.408V18.029C164.408 16.7325 163.881 15.6386 162.342 15.6386C161.288 15.6386 160.438 16.3273 160.154 17.1376C160.073 17.3402 160.032 17.5833 160.032 17.8264V22.6881H158.412V16.8135C158.412 15.9627 158.412 15.3145 158.331 14.6258H159.789ZM152.051 14.4232C154.603 14.4232 156.346 16.0843 156.346 18.5556C156.346 21.5537 154.036 22.8502 151.889 22.8502C149.499 22.8502 147.594 21.2701 147.594 18.7177C147.594 16.0032 149.58 14.4232 152.051 14.4232ZM137.263 14.4232C138.641 14.4232 139.573 14.9904 139.978 15.6386H140.018V10.8579H141.639V20.5814C141.639 21.3106 141.639 22.1209 141.72 22.6476H140.261L140.18 21.2296H140.14C139.654 22.1209 138.56 22.8097 137.101 22.8097C134.954 22.8097 133.252 21.1486 133.252 18.7177C133.252 16.0843 135.116 14.4232 137.263 14.4232ZM110.483 10.8579H112.104V22.6881H110.483V10.8579ZM64.2155 11.6277C65.2284 11.5061 66.3628 11.3846 67.6593 11.3846C69.9686 11.3846 71.6297 11.8708 72.7236 12.7621C73.858 13.6939 74.5062 14.9904 74.5062 16.8135C74.5062 18.6367 73.858 20.1357 72.7236 21.1891C71.5487 22.2425 69.604 22.8097 67.2136 22.8097C66.0387 22.8097 65.1068 22.7692 64.256 22.6881V11.6277H64.2155ZM36.382 14.6663C38.1242 12.5595 41.1222 10.9389 43.6747 10.7363C44.1203 13.6129 42.9049 16.4489 41.3653 18.4746C39.7042 20.6219 36.8277 22.283 34.0322 22.202C33.465 19.447 34.802 16.611 36.382 14.6663ZM52.0206 51.494C49.9949 54.5731 47.1589 58.3814 43.6747 58.3814C40.555 58.422 39.7448 56.3557 35.5312 56.3557C31.3177 56.3962 30.4264 58.3814 27.3068 58.3814C23.782 58.3409 21.1081 54.8972 19.0823 51.8586C13.4508 43.3101 12.8836 33.2624 16.3274 27.9145C18.7987 24.1062 22.6881 21.9184 26.3344 21.9184C30.0618 21.9184 32.4116 23.9441 35.4907 23.9441C38.4888 23.9441 40.312 21.9184 44.6065 21.9184C47.8477 21.9184 51.2914 23.701 53.7628 26.7396C45.7004 31.1557 47.0374 42.6213 55.1403 45.7004C54.0059 48.2123 53.4792 49.3062 52.0206 51.494ZM80.5834 51.494L78.112 44.2014H70.3332L67.9429 51.494H64.256L72.3184 27.793H76.3294L84.4323 51.494H80.5834ZM80.2593 22.8502C77.8284 22.8502 75.9647 21.2701 75.9647 18.7177C75.9647 16.0032 77.95 14.4232 80.4213 14.4232C82.9737 14.4232 84.7159 16.0843 84.7159 18.5556C84.7159 21.5537 82.366 22.8502 80.2593 22.8502ZM87.2683 14.6258L88.4837 18.7177C88.7268 19.609 88.9699 20.4598 89.132 21.3107H89.1725C89.375 20.5004 89.6586 19.6495 89.9828 18.7582L91.4413 14.6663H92.8188L94.1963 18.6772C94.5204 19.609 94.804 20.5004 95.0066 21.3107H95.0471C95.2091 20.5004 95.4522 19.6496 95.7358 18.6772L96.9918 14.6258H98.6124L95.7358 22.6881H94.2368L92.8593 18.8393C92.5352 17.9074 92.2921 17.1377 92.049 16.1653H92.0085C91.8059 17.1377 91.5223 17.9884 91.1982 18.8393L89.7397 22.6476H88.2406L85.5262 14.5852H87.2683V14.6258ZM99.7468 49.5898C98.3287 51.0888 96.4246 51.8991 94.3178 51.8991C92.2921 51.8991 90.5094 51.1293 89.4156 49.7923V58.3004H85.8098V40.0283C85.8098 37.719 85.7692 36.0984 85.6882 34.6399V34.3563H88.9699L89.132 36.7062C90.4284 34.9235 92.3731 33.9512 94.8445 33.9512C96.9108 33.9512 98.7744 34.802 100.111 36.382C101.489 38.0026 102.178 40.1499 102.178 42.6618C102.137 45.5383 101.286 47.9287 99.7468 49.5898ZM101.975 17.1376C101.894 17.3402 101.854 17.5833 101.854 17.8264V22.6881H100.233V16.8135C100.233 15.9627 100.233 15.3145 100.152 14.6258H101.61L101.691 15.9222H101.732C102.178 15.1929 103.231 14.4232 104.69 14.4232C105.945 14.4232 107.85 15.0714 107.85 17.8669V22.6881H106.229V18.029C106.229 16.7325 105.702 15.6386 104.163 15.6386C103.109 15.6386 102.259 16.3273 101.975 17.1376ZM118.181 49.5898C116.763 51.0888 114.859 51.8991 112.752 51.8991C110.726 51.8991 108.984 51.1293 107.85 49.7923V58.3004H104.284V40.0283C104.284 37.719 104.244 36.0984 104.163 34.6399V34.3563H107.445L107.607 36.7062C108.903 34.9235 110.848 33.9512 113.319 33.9512C115.385 33.9512 117.249 34.802 118.586 36.382C119.964 38.0026 120.652 40.1499 120.652 42.6618C120.612 45.5383 119.761 47.9287 118.181 49.5898ZM118.505 22.8502C116.074 22.8502 114.21 21.2701 114.21 18.7177C114.21 16.0032 116.196 14.4232 118.667 14.4232C121.219 14.4232 122.962 16.0843 122.962 18.5556C122.921 21.5537 120.612 22.8502 118.505 22.8502ZM124.299 20.5409C124.299 18.5962 126.203 17.5428 129.687 17.5428V17.3807C129.687 16.7325 129.484 15.5171 127.661 15.5171C126.81 15.5171 125.96 15.7196 125.311 16.1248L124.947 15.1524C125.676 14.7473 126.77 14.4637 127.904 14.4637C130.659 14.4637 131.308 16.1248 131.308 17.7454V20.7434C131.308 21.4322 131.348 22.1209 131.429 22.6881H129.971L129.809 21.6753H129.768C129.282 22.3235 128.31 22.8907 127.013 22.8907C125.19 22.8502 124.299 21.7158 124.299 20.5409ZM134.063 51.8991C131.915 51.8991 129.363 51.2509 127.985 50.3595L127.823 50.238L128.796 47.1589L129.12 47.3615C130.578 48.2933 132.442 48.82 134.306 48.82C137.101 48.82 138.884 47.402 138.884 45.1737C138.884 43.1885 137.749 42.0135 134.711 40.8791C130.416 39.2991 128.431 37.1518 128.431 34.0322C128.431 30.1833 131.632 27.4688 136.21 27.4688C139.127 27.4688 140.828 28.2791 141.436 28.6438L141.639 28.7653L140.626 31.7634L140.302 31.5608C139.897 31.3177 138.398 30.5074 136.088 30.5074C133.252 30.5074 131.996 32.0875 131.996 33.7081C131.996 35.5718 133.05 36.6251 136.412 37.9216C140.707 39.6232 142.449 41.649 142.449 44.9711C142.409 48.1313 140.261 51.8991 134.063 51.8991ZM153.226 37.1923H148.891V45.8624C148.891 47.9287 149.499 48.82 150.876 48.82C151.605 48.82 152.092 48.7795 152.537 48.6175L152.861 48.4959L153.023 51.3724L152.821 51.4535C152.375 51.6155 151.403 51.8991 150.066 51.8991C148.648 51.8991 147.392 51.4129 146.582 50.5216C145.731 49.5898 145.326 48.0908 145.326 45.984V37.1923H142.773V34.3158H145.366V31.3177L148.891 30.2238V34.3158H153.226V37.1923ZM161.856 51.8991C156.953 51.8991 153.591 48.2528 153.591 43.0669C153.591 37.719 157.075 33.9512 162.099 33.9512C164.529 33.9512 166.596 34.802 168.095 36.4225C169.594 38.0026 170.364 40.2309 170.364 42.7834C170.364 49.0226 165.947 51.8991 161.856 51.8991ZM171.579 14.6258H172.957V13.1267L174.537 12.681V14.6258H176.886V15.7602H174.537V20.0952C174.537 21.1081 174.861 21.6753 175.752 21.6753C176.198 21.6753 176.441 21.6348 176.684 21.5942L176.765 22.7287C176.441 22.8097 175.955 22.9312 175.306 22.9312C174.537 22.9312 173.929 22.6881 173.564 22.3235C173.119 21.8779 172.916 21.1486 172.916 20.2168V15.8412H171.538V14.6258H171.579ZM180.006 37.3544C178.102 37.3544 176.643 38.7724 176.238 40.9602C176.157 41.3653 176.157 41.8515 176.157 42.3377V51.494H172.551L172.592 39.7853C172.592 37.638 172.551 36.0579 172.47 34.6399L172.43 34.3563H175.63L175.752 36.8682C176.684 35.0856 178.385 33.9917 180.249 33.9917C180.573 33.9917 180.816 34.0322 181.14 34.1132L181.343 34.1537V37.5165L180.978 37.476C180.654 37.3949 180.371 37.3544 180.006 37.3544ZM196.414 43.5126L196.374 43.7557L184.787 43.7152C184.989 48.4148 188.595 48.901 190.175 48.901C192.403 48.901 193.7 48.4959 194.672 48.0907L194.956 47.9692L195.645 50.6432L195.442 50.7242C194.348 51.2104 192.485 51.8181 189.77 51.8181C184.625 51.8181 181.302 48.4149 181.302 43.148C181.302 37.6785 184.625 33.8702 189.405 33.8702C194.672 33.8702 196.536 38.2457 196.536 41.9731C196.536 42.6618 196.495 43.148 196.414 43.5126Z" fill="white" fill-opacity="0.3"/>
<path d="M137.547 21.6748C138.64 21.6748 139.653 21.0266 139.937 19.9327C139.977 19.7301 140.018 19.5276 140.018 19.2845V17.907C140.018 17.7044 140.018 17.4613 139.937 17.2588C139.694 16.3269 138.802 15.5977 137.587 15.5977C135.885 15.5977 134.913 16.9347 134.913 18.6768C134.913 20.3379 135.804 21.6748 137.547 21.6748Z" fill="white" fill-opacity="0.3"/>
<path d="M151.929 21.7566C153.509 21.7566 154.684 20.4601 154.684 18.5965C154.684 17.219 153.915 15.5173 152.01 15.5173C150.106 15.5173 149.255 17.0974 149.255 18.637C149.255 20.4196 150.349 21.7566 151.929 21.7566Z" fill="white" fill-opacity="0.3"/>
</svg>
