<svg width="82" height="82" viewBox="0 0 82 82" fill="none" xmlns="http://www.w3.org/2000/svg">
<mask id="path-1-inside-1_335_13013" fill="white">
<path fill-rule="evenodd" clip-rule="evenodd" d="M82 1.43373e-05L0 0L-1.43373e-05 82L82 82L82 1.43373e-05ZM28 58.3205L58 41L28 23.6795L28 58.3205Z"/>
</mask>
<path d="M0 0L5.24537e-07 -3L-3 -3L-3 -5.24537e-07L0 0ZM82 1.43373e-05L85 1.48619e-05L85 -2.99999L82 -2.99999L82 1.43373e-05ZM-1.43373e-05 82L-3.00001 82L-3.00001 85L-1.48619e-05 85L-1.43373e-05 82ZM82 82L82 85L85 85L85 82L82 82ZM58 41L59.5 43.5981L64 41L59.5 38.4019L58 41ZM28 58.3205L25 58.3205L25 63.5167L29.5 60.9186L28 58.3205ZM28 23.6795L29.5 21.0814L25 18.4833L25 23.6795L28 23.6795ZM-5.24537e-07 3L82 3.00001L82 -2.99999L5.24537e-07 -3L-5.24537e-07 3ZM2.99999 82L3 5.24537e-07L-3 -5.24537e-07L-3.00001 82L2.99999 82ZM82 79L-1.38128e-05 79L-1.48619e-05 85L82 85L82 79ZM79 1.38128e-05L79 82L85 82L85 1.48619e-05L79 1.38128e-05ZM56.5 38.4019L26.5 55.7224L29.5 60.9186L59.5 43.5981L56.5 38.4019ZM26.5 26.2776L56.5 43.5981L59.5 38.4019L29.5 21.0814L26.5 26.2776ZM31 58.3205L31 23.6795L25 23.6795L25 58.3205L31 58.3205Z" fill="white" fill-opacity="0.35" mask="url(#path-1-inside-1_335_13013)"/>
</svg>
