<svg width="82" height="82" viewBox="0 0 82 82" fill="none" xmlns="http://www.w3.org/2000/svg">
<mask id="path-1-inside-1_335_13011" fill="white">
<path fill-rule="evenodd" clip-rule="evenodd" d="M0 82L82 82L82 0L7.16867e-06 -7.16867e-06L0 82ZM54 23.6795L24 41L54 58.3205L54 23.6795Z"/>
</mask>
<path d="M82 82L82 85L85 85L85 82L82 82ZM0 82L-3 82L-3 85L-2.62268e-07 85L0 82ZM82 0L85 2.62268e-07L85 -3L82 -3L82 0ZM7.16867e-06 -7.16867e-06L7.43094e-06 -3.00001L-2.99999 -3.00001L-2.99999 -7.43094e-06L7.16867e-06 -7.16867e-06ZM24 41L22.5 38.4019L18 41L22.5 43.5981L24 41ZM54 23.6795L57 23.6795L57 18.4833L52.5 21.0814L54 23.6795ZM54 58.3205L52.5 60.9186L57 63.5167L57 58.3205L54 58.3205ZM82 79L2.62268e-07 79L-2.62268e-07 85L82 85L82 79ZM79 -2.62268e-07L79 82L85 82L85 2.62268e-07L79 -2.62268e-07ZM6.9064e-06 2.99999L82 3L82 -3L7.43094e-06 -3.00001L6.9064e-06 2.99999ZM3 82L3.00001 -6.9064e-06L-2.99999 -7.43094e-06L-3 82L3 82ZM25.5 43.5981L55.5 26.2776L52.5 21.0814L22.5 38.4019L25.5 43.5981ZM55.5 55.7224L25.5 38.4019L22.5 43.5981L52.5 60.9186L55.5 55.7224ZM51 23.6795L51 58.3205L57 58.3205L57 23.6795L51 23.6795Z" fill="white" fill-opacity="0.35" mask="url(#path-1-inside-1_335_13011)"/>
</svg>
