<svg width="56" height="40" viewBox="0 0 56 40" fill="none" xmlns="http://www.w3.org/2000/svg">
<path d="M0 13.8813C0 6.94066 5.0127 0 7.71184 0C10.411 0 15.4237 6.94066 15.4237 13.8813C15.4237 20.822 15.4237 39.3304 15.4237 39.3304H0V13.8813Z" fill="#E4E4E4"/>
<path d="M19.665 13.8813C19.665 6.94066 24.6777 0 27.3769 0C30.076 0 35.0887 6.94066 35.0887 13.8813C35.0887 20.822 35.0887 39.3304 35.0887 39.3304H19.665V13.8813Z" fill="#E4E4E4"/>
<path d="M39.7158 13.8813C39.7158 6.94066 44.7285 0 47.4277 0C50.1268 0 55.1395 6.94066 55.1395 13.8813C55.1395 20.822 55.1395 39.3304 55.1395 39.3304H39.7158V13.8813Z" fill="#E4E4E4"/>
</svg>
