<svg width="208" height="68" viewBox="0 0 208 68" fill="none" xmlns="http://www.w3.org/2000/svg">
<path d="M97.5996 18.5556C97.8021 18.5962 97.9642 18.5962 98.1668 18.5962C98.7745 18.5962 99.2607 18.3936 99.5443 18.029C99.8279 17.6238 99.9899 17.1782 99.9899 16.611C99.9899 16.0438 99.8279 15.5981 99.5038 15.1929C99.1796 14.8283 98.6935 14.6257 98.0047 14.6257C97.8832 14.6257 97.7211 14.6257 97.478 14.6663C97.5185 15.2335 97.5185 15.8412 97.5185 16.4894C97.5996 17.1782 97.5996 17.8669 97.5996 18.5556Z" fill="white" fill-opacity="0.3"/>
<path d="M177.13 39.0153C176.4 39.461 176.076 40.1497 176.076 41.0816C176.076 41.8108 176.279 42.3781 176.724 42.7427C177.17 43.1073 177.778 43.3099 178.588 43.3099C179.844 43.3099 180.857 42.9453 181.546 42.2565C182.275 41.5678 182.64 40.5954 182.64 39.3395V38.124L180.614 38.2051C178.993 38.3266 177.818 38.5697 177.13 39.0153Z" fill="white" fill-opacity="0.3"/>
<path d="M111.942 16.5299C112.995 16.5299 113.522 16.2058 113.522 15.517C113.522 14.9093 113.117 14.5852 112.306 14.5852C112.104 14.5852 111.861 14.6257 111.658 14.6662C111.699 15.1929 111.699 15.8412 111.699 16.5299C111.78 16.5299 111.861 16.5299 111.942 16.5299Z" fill="white" fill-opacity="0.3"/>
<path d="M117.168 16.5299C118.221 16.5299 118.748 16.2058 118.748 15.517C118.748 14.9093 118.343 14.5852 117.492 14.5852C117.289 14.5852 117.087 14.6257 116.844 14.6662C116.884 15.1929 116.884 15.8412 116.884 16.5299C116.965 16.5299 117.087 16.5299 117.168 16.5299Z" fill="white" fill-opacity="0.3"/>
<path d="M125.676 18.6772C126.081 18.6772 126.446 18.4746 126.77 18.11C127.053 17.7049 127.215 17.2592 127.215 16.692C127.215 16.0843 127.053 15.5981 126.77 15.1929C126.446 14.8283 126.081 14.6257 125.635 14.6257C125.23 14.6257 124.865 14.8283 124.541 15.1929C124.258 15.5576 124.096 16.0438 124.096 16.611C124.096 17.2187 124.258 17.7048 124.582 18.0695C124.865 18.4746 125.23 18.6772 125.676 18.6772Z" fill="white" fill-opacity="0.3"/>
<path d="M106.837 14.5852H106.756C106.756 14.7067 106.513 15.517 105.986 17.0161H107.566C107.08 15.517 106.837 14.7067 106.837 14.5852Z" fill="white" fill-opacity="0.3"/>
<path d="M65.7146 14.5852H65.6335C65.6335 14.7067 65.3905 15.517 64.8638 17.0161H66.4438C65.9577 15.517 65.7146 14.7067 65.7146 14.5852Z" fill="white" fill-opacity="0.3"/>
<path d="M83.4602 14.5852C83.1766 14.5852 82.9335 14.5852 82.731 14.6662C82.7715 15.1119 82.7715 15.6791 82.7715 16.4084C82.9335 16.4084 83.0551 16.4084 83.1766 16.4084C84.1085 16.4084 84.5541 16.0842 84.5541 15.436C84.5541 14.9093 84.1895 14.5852 83.4602 14.5852Z" fill="white" fill-opacity="0.3"/>
<path d="M119.842 32.5737C119.113 32.5737 118.343 32.9384 117.897 33.5056C117.411 34.1133 117.29 34.8426 117.29 35.5718C117.29 37.4355 118.383 40.5551 120.774 40.5551C121.463 40.5551 122.232 40.231 122.678 39.7853C123.326 39.1371 123.367 38.2458 123.367 37.7596C123.367 35.6934 122.151 32.5737 119.842 32.5737Z" fill="white" fill-opacity="0.3"/>
<path d="M89.6992 18.6772C90.1043 18.6772 90.469 18.4746 90.7931 18.11C91.0767 17.7049 91.2387 17.2592 91.2387 16.692C91.2387 16.0843 91.0767 15.5981 90.7526 15.1929C90.4285 14.8283 90.0638 14.6257 89.6182 14.6257C89.213 14.6257 88.8484 14.8283 88.5243 15.1929C88.2407 15.5576 88.0786 16.0438 88.0786 16.611C88.0786 17.2187 88.2407 17.7048 88.5648 18.0695C88.8889 18.4746 89.2535 18.6772 89.6992 18.6772Z" fill="white" fill-opacity="0.3"/>
<path d="M90.8338 32.0876C89.9019 32.0876 89.0106 32.4523 88.3219 33.0195C87.228 33.9918 87.0254 35.2072 87.0254 36.4227C87.0254 39.1777 88.4029 43.7153 91.7656 43.7153C92.8595 43.7153 93.9534 43.1886 94.6016 42.2973C95.2904 41.406 95.4524 40.2716 95.4524 39.2182C95.4524 36.7873 94.2775 32.0876 90.8338 32.0876Z" fill="white" fill-opacity="0.3"/>
<path d="M121.22 45.0117C120.976 45.0117 119.477 45.0522 118.302 45.4574C117.695 45.7005 115.912 46.3487 115.912 48.3339C115.912 50.3191 117.857 51.7371 120.814 51.7371C123.488 51.7371 124.906 50.4407 124.906 48.6986C124.906 47.2805 123.974 46.5108 121.868 45.0117C121.625 45.0117 121.503 45.0117 121.22 45.0117Z" fill="white" fill-opacity="0.3"/>
<path d="M76.8154 18.5556C77.018 18.5962 77.18 18.5962 77.3826 18.5962C77.9903 18.5962 78.4765 18.3936 78.7601 18.029C79.0437 17.6238 79.2058 17.1782 79.2058 16.611C79.2058 16.0438 79.0437 15.5981 78.7196 15.1929C78.3955 14.8283 77.9093 14.6257 77.2205 14.6257C77.099 14.6257 76.9369 14.6257 76.6938 14.6663C76.7344 15.2335 76.7344 15.8412 76.7344 16.4894C76.7344 17.1782 76.7749 17.8669 76.8154 18.5556Z" fill="white" fill-opacity="0.3"/>
<path d="M142.287 34.5593C142.287 33.4249 141.031 32.1689 139.532 32.1689C138.398 32.1689 136.332 33.0198 136.332 36.0584C136.332 36.5445 136.372 37.0307 136.413 37.5169L141.477 35.3291C142.004 35.1265 142.287 34.9645 142.287 34.5593Z" fill="white" fill-opacity="0.3"/>
<path d="M105.946 32.0876C105.014 32.0876 104.122 32.4523 103.434 33.0195C102.34 33.9918 102.137 35.2072 102.137 36.4227C102.137 39.1777 103.515 43.7153 106.877 43.7153C107.971 43.7153 109.065 43.1886 109.713 42.2973C110.402 41.406 110.564 40.2716 110.564 39.2182C110.564 36.7873 109.389 32.0876 105.946 32.0876Z" fill="white" fill-opacity="0.3"/>
<path d="M161.005 32.8572C159.627 32.8572 158.655 33.2218 158.047 33.9916C157.439 34.7614 157.115 35.9363 157.115 37.5974V38.043C157.115 39.9067 157.439 41.2437 158.047 42.054C158.655 42.8643 159.668 43.2694 161.045 43.2694C162.22 43.2694 163.111 42.7832 163.76 41.8514C164.408 40.9196 164.732 39.6231 164.732 38.0025C164.732 36.3414 164.408 35.045 163.76 34.1942C163.111 33.3028 162.18 32.8572 161.005 32.8572Z" fill="white" fill-opacity="0.3"/>
<path d="M198.076 0H9.15628C4.09197 0 0 4.09196 0 9.15627V58.6245C0 63.6888 4.09197 67.7808 9.15628 67.7808H198.076C203.14 67.7808 207.232 63.6888 207.232 58.6245V9.15627C207.232 4.13247 203.14 0 198.076 0ZM129.646 13.8154H130.943C130.943 13.9775 131.308 14.5852 132.037 15.6386C132.807 16.773 133.252 17.5428 133.333 17.9479H133.414C133.333 17.2997 133.333 16.7325 133.333 16.2058C133.333 15.436 133.333 14.6257 133.252 13.7749H134.346C134.306 14.5042 134.306 15.3955 134.306 16.4894C134.306 17.5833 134.306 18.5557 134.346 19.447H133.293C133.293 19.3254 132.888 18.6772 132.077 17.5428C131.227 16.3274 130.781 15.5171 130.659 15.0714H130.578C130.659 15.7196 130.7 16.2868 130.7 16.8135C130.7 17.5428 130.7 18.3936 130.74 19.447H129.687C129.728 18.5557 129.768 17.5428 129.768 16.4894C129.728 15.436 129.687 14.5447 129.646 13.8154ZM123.691 14.5447C124.218 13.937 124.906 13.6534 125.717 13.6534C126.486 13.6534 127.135 13.937 127.661 14.4637C128.188 14.9904 128.431 15.6791 128.431 16.5299C128.431 17.4212 128.147 18.1505 127.621 18.7582C127.054 19.3659 126.405 19.6495 125.595 19.6495C124.825 19.6495 124.177 19.3659 123.65 18.8393C123.124 18.3126 122.881 17.6238 122.881 16.773C122.881 15.8817 123.124 15.1524 123.691 14.5447ZM115.75 13.8154H116.52C116.641 13.8154 116.844 13.8154 117.127 13.8154C117.452 13.8154 117.695 13.8154 117.938 13.8154C118.505 13.8154 118.951 13.937 119.356 14.1801C119.72 14.4232 119.923 14.7878 119.923 15.3145C119.923 16.0032 119.68 16.5299 119.153 16.854C118.627 17.1782 118.019 17.3402 117.249 17.3402C117.127 17.3402 117.006 17.3402 116.965 17.3402C116.965 17.8669 116.965 18.5962 117.006 19.4875H115.791C115.831 18.6367 115.831 17.6643 115.831 16.5299C115.791 15.4765 115.791 14.5447 115.75 13.8154ZM110.524 13.8154H111.293C111.415 13.8154 111.618 13.8154 111.901 13.8154C112.185 13.8154 112.468 13.8154 112.711 13.8154C113.279 13.8154 113.724 13.937 114.089 14.1801C114.454 14.4232 114.656 14.7878 114.656 15.3145C114.656 16.0032 114.413 16.5299 113.886 16.854C113.36 17.1782 112.752 17.3402 111.982 17.3402C111.861 17.3402 111.739 17.3402 111.699 17.3402C111.699 17.8669 111.699 18.5962 111.739 19.4875H110.524C110.564 18.6367 110.564 17.6643 110.564 16.5299C110.564 15.4765 110.564 14.5447 110.524 13.8154ZM105.095 16.692C105.783 14.9499 106.108 13.9775 106.108 13.8154H107.769C107.769 13.9775 108.093 14.9093 108.7 16.6515C109.308 18.3936 109.632 19.3254 109.632 19.4875H108.255C108.255 19.2849 108.133 18.7582 107.85 17.8669H105.824C105.54 18.7582 105.419 19.2849 105.419 19.4875H104.122C104.082 19.3659 104.406 18.4341 105.095 16.692ZM96.4246 13.8154H97.1943C97.3159 13.8154 97.5185 13.8154 97.7615 13.8154C98.0046 13.8154 98.1667 13.8154 98.2477 13.8154C99.3011 13.8154 100.071 14.0585 100.517 14.5852C101.003 15.1119 101.246 15.7196 101.246 16.4489C101.246 17.2592 100.962 17.9884 100.436 18.5962C99.9088 19.2039 99.1796 19.528 98.2072 19.528C97.7616 19.528 97.1943 19.528 96.4246 19.4875C96.4651 18.5962 96.4651 17.6238 96.4651 16.5299C96.4651 15.436 96.4651 14.5447 96.4246 13.8154ZM93.6696 13.8154H94.885C94.8445 14.5447 94.8445 15.436 94.8445 16.5299C94.8445 17.6238 94.8445 18.5962 94.885 19.4875H93.6696C93.7101 18.5962 93.7101 17.5833 93.7101 16.5299C93.7101 15.436 93.7101 14.5447 93.6696 13.8154ZM87.714 14.5447C88.2406 13.937 88.9294 13.6534 89.7397 13.6534C90.5095 13.6534 91.1577 13.937 91.6844 14.4637C92.2111 14.9904 92.4541 15.6791 92.4541 16.5299C92.4541 17.4212 92.1705 18.1505 91.6439 18.7582C91.1172 19.3659 90.4284 19.6495 89.6181 19.6495C88.8484 19.6495 88.2001 19.3659 87.6734 18.8393C87.1467 18.3126 86.9037 17.6238 86.9037 16.773C86.9037 15.8817 87.1873 15.1524 87.714 14.5447ZM75.6001 13.8154H76.3699C76.4914 13.8154 76.694 13.8154 76.9371 13.8154C77.1802 13.8154 77.3422 13.8154 77.4233 13.8154C78.4766 13.8154 79.2464 14.0585 79.6921 14.5852C80.1782 15.1119 80.4213 15.7196 80.4213 16.4489C80.4213 17.2592 80.1377 17.9884 79.611 18.5962C79.0844 19.2039 78.3551 19.528 77.3827 19.528C76.9371 19.528 76.3699 19.528 75.6001 19.4875C75.6406 18.5962 75.6406 17.6238 75.6406 16.5299C75.6406 15.436 75.6406 14.5447 75.6001 13.8154ZM69.4014 13.8154H70.6978C70.6978 13.9775 71.0625 14.5852 71.7917 15.6386C72.5615 16.773 73.0072 17.5428 73.0882 17.9479H73.1692C73.0882 17.2997 73.0477 16.7325 73.0477 16.2058C73.0477 15.436 73.0477 14.6257 73.0072 13.7749H74.1011C74.0605 14.5042 74.02 15.3955 74.02 16.4894C74.02 17.5833 74.02 18.5557 74.1011 19.447H73.0072C73.0072 19.3254 72.602 18.6772 71.8323 17.5428C70.9814 16.3274 70.5358 15.5171 70.4142 15.0714H70.3332C70.4142 15.7196 70.4548 16.2868 70.4548 16.8135C70.4548 17.5428 70.4953 18.3936 70.5358 19.447H69.4824C69.5229 18.5557 69.5634 17.5428 69.5634 16.4894C69.4824 15.436 69.4419 14.5447 69.4014 13.8154ZM63.9724 16.692C64.6612 14.9499 64.9853 13.9775 64.9853 13.8154H66.6464C66.6464 13.9775 66.9705 14.9093 67.5782 16.6515C68.1859 18.3936 68.5101 19.3254 68.5101 19.4875H67.1326C67.1326 19.2849 67.011 18.7582 66.7274 17.8669H64.7017C64.4181 18.7582 64.2966 19.2849 64.2966 19.4875H62.9596C62.9596 19.3659 63.2837 18.4341 63.9724 16.692ZM16.6515 13.7749C16.692 13.7749 16.773 13.7749 16.8135 13.7749H16.854C16.8946 13.7749 16.9756 13.7749 17.0161 13.8154C17.0971 13.856 17.2187 13.856 17.2997 13.8965C17.3402 13.8965 17.3807 13.937 17.4212 13.937L17.5428 14.018C17.8264 14.1801 19.5685 15.193 21.7968 16.4894L22.5261 16.8946C23.1338 17.2592 23.782 17.6238 24.4708 18.029L25.2811 18.5151C25.5647 18.6772 25.8078 18.8392 26.0914 19.0013L26.9016 19.4875L27.7119 19.9737C27.9955 20.1357 28.2386 20.2978 28.5222 20.4193L29.6971 21.1081C29.8187 21.1891 29.9402 21.2701 30.1023 21.3512L30.8316 21.7968C33.5055 23.3364 35.5312 24.5113 35.5312 24.5113L43.7962 29.292L38.6914 34.3968L37.8406 35.2476L16.3274 13.8965C16.4489 13.8154 16.5299 13.7749 16.6515 13.7749ZM15.5576 36.0174C15.5576 36.0174 15.5576 17.0566 15.5576 15.0309C15.5576 14.9499 15.5576 14.8688 15.5576 14.7878L36.9492 36.0174L15.5576 57.247C15.5576 55.0592 15.5576 36.0174 15.5576 36.0174ZM35.5718 47.564C35.5718 47.564 33.5055 48.7795 30.7505 50.3596C30.5074 50.4811 30.2644 50.6432 30.0213 50.7647C29.211 51.2104 28.3602 51.6965 27.5094 52.2232C26.537 52.7904 25.5242 53.3576 24.5518 53.9248C24.4303 54.0059 24.2682 54.0869 24.1467 54.1679C23.8631 54.33 23.5795 54.492 23.3364 54.6541C22.9312 54.8972 22.5261 55.0998 22.1614 55.3428C21.9184 55.5049 21.6753 55.6265 21.4322 55.7885C21.1891 55.9506 20.946 56.0721 20.7029 56.1937C20.3383 56.3962 20.0142 56.5988 19.7306 56.7608C19.6495 56.8014 19.528 56.8824 19.447 56.9229C19.2444 57.0445 19.0823 57.1255 18.8798 57.247C18.7582 57.3281 18.6367 57.3686 18.5557 57.4496C18.5557 57.4496 18.5151 57.4901 18.4746 57.4901C18.3531 57.5306 18.272 57.6117 18.1505 57.6522C18.0695 57.6927 17.9479 57.7737 17.8669 57.8142C17.8264 57.8548 17.7859 57.8547 17.7454 57.8952C17.7048 57.9358 17.6643 57.9358 17.6238 57.9763C17.5428 58.0168 17.4618 58.0573 17.4212 58.0978C17.3402 58.1383 17.2997 58.1789 17.2592 58.1789C17.2187 58.2194 17.1782 58.2194 17.1376 58.2599C16.773 58.4625 16.4084 58.5435 16.1248 58.422L37.8406 36.9087L38.6914 37.7595L43.7962 42.8239L35.5718 47.564ZM53.9248 36.9898C53.3981 37.3139 51.2914 38.4888 49.2657 39.6637C49.0631 39.7853 48.8605 39.9068 48.6579 40.0284C47.6451 40.5956 46.7132 41.1628 46.0245 41.5679C45.3763 41.9325 44.9306 42.2161 44.9306 42.2161L39.5827 36.9087L38.7319 36.0579L39.5827 35.2071L44.9306 29.8997C44.9306 29.8997 44.9711 29.8997 45.0116 29.9402L45.2547 30.0618C45.3358 30.1023 45.3763 30.1428 45.4978 30.1833C45.5788 30.2644 45.7004 30.3049 45.8219 30.3859C45.903 30.4264 45.9435 30.4669 46.0245 30.5074L46.065 30.5479C46.1866 30.629 46.3081 30.6695 46.4296 30.7505C46.4702 30.791 46.5512 30.8316 46.5917 30.8721C46.7133 30.9531 46.8753 31.0341 47.0374 31.1152L47.483 31.3988L48.0097 31.6824C48.3338 31.8444 48.6579 32.047 48.9821 32.2496L49.7518 32.6952C49.9544 32.8168 50.1975 32.9383 50.4001 33.0598C50.4811 33.1004 50.6026 33.1814 50.6837 33.2219L51.3724 33.6271C51.575 33.7486 51.7776 33.8701 51.9801 33.9917C52.0612 34.0322 52.1422 34.0727 52.1827 34.1132L52.3853 34.2348L52.5878 34.3563C52.6689 34.3968 52.7904 34.4779 52.8715 34.5184L53.1145 34.6399L53.3171 34.7615L53.4792 34.8425L53.5602 34.883L53.6007 34.9235L53.6412 34.964L53.7223 35.0045L53.8033 35.0451L53.8843 35.0856L53.9654 35.1261C54.0059 35.1666 54.0869 35.2071 54.1274 35.2071C54.8567 35.6528 54.8972 36.4226 53.9248 36.9898ZM82.5281 38.9345C82.3255 39.0965 82.285 39.1776 82.2445 39.3801C82.204 39.6232 82.204 40.4335 82.204 40.7171V44.1203L78.193 45.0522C76.5725 45.2952 75.1139 45.5383 73.5744 45.5383C65.8361 45.5383 62.8785 39.8258 62.8785 35.3692C62.8785 29.9402 67.0515 24.8759 74.2226 24.8759C75.7216 24.8759 77.1802 25.0785 78.5171 25.4836C80.6239 26.0913 81.5963 26.7801 82.204 27.2258L79.8946 29.4541L78.9223 29.6566L79.611 28.5222C78.6387 27.5904 76.8966 25.8888 73.6149 25.8888C69.1988 25.8888 65.8361 29.2515 65.8361 34.1537C65.8361 39.4206 69.6445 44.3634 75.7622 44.3634C77.5448 44.3634 78.4766 43.9988 79.3274 43.6747V39.1776L75.1139 39.3801L77.3422 38.1647H83.2979L82.5281 38.9345ZM83.2573 17.2187C83.0953 17.2187 82.9332 17.2187 82.7712 17.2187C82.7712 17.9479 82.7712 18.7177 82.8117 19.4875H81.5963C81.6368 18.5962 81.6368 17.6238 81.6368 16.5299C81.6368 15.4765 81.6368 14.5852 81.5963 13.8154H82.366C82.4471 13.8154 82.6496 13.8154 82.9332 13.8154C83.2168 13.8154 83.4599 13.8154 83.703 13.8154C85.04 13.8154 85.6882 14.2611 85.6882 15.1929C85.6882 15.9222 85.3236 16.4084 84.5538 16.692V16.773C84.8374 16.854 85.121 17.0971 85.3236 17.4618C85.5262 17.8264 85.8503 18.5151 86.2149 19.528H84.9184C84.5943 18.5151 84.3107 17.8669 84.1487 17.6238C83.9461 17.3402 83.6625 17.2187 83.2573 17.2187ZM91.1577 44.6065C86.7011 44.6065 84.3512 41.1627 84.3512 38.0431C84.3512 34.3968 87.3493 31.2772 91.5628 31.2772C95.6548 31.2772 98.2072 34.4778 98.2072 37.8406C98.2072 41.1222 95.6953 44.6065 91.1577 44.6065ZM106.27 44.6065C101.854 44.6065 99.4632 41.1627 99.4632 38.0431C99.4632 34.3968 102.461 31.2772 106.675 31.2772C110.767 31.2772 113.319 34.4778 113.319 37.8406C113.319 41.1222 110.807 44.6065 106.27 44.6065ZM125.798 36.4225C125.798 38.4888 124.623 39.4612 123.448 40.393C123.083 40.7576 122.678 41.1628 122.678 41.7705C122.678 42.3782 123.083 42.7023 123.407 42.9859L124.42 43.7557C125.636 44.7686 126.77 45.7409 126.77 47.6451C126.77 50.2785 124.218 52.912 119.437 52.912C115.385 52.912 113.441 50.9673 113.441 48.901C113.441 47.8882 113.927 46.4702 115.588 45.4978C117.33 44.4444 119.68 44.2824 120.936 44.2013C120.531 43.7152 120.085 43.1885 120.085 42.2972C120.085 41.811 120.207 41.5274 120.369 41.2033C120.045 41.2438 119.761 41.2438 119.477 41.2438C116.52 41.2438 114.859 39.0155 114.859 36.8682C114.859 35.5718 115.466 34.1537 116.641 33.1409C118.221 31.8444 120.126 31.6013 121.625 31.6013H127.378L125.595 32.6142H123.853C124.461 33.1814 125.798 34.2753 125.798 36.4225ZM133.09 44.1203H128.147C128.796 43.2695 128.917 43.1885 128.917 42.6213V25.3216H126.77L128.877 24.3087H132.888C131.996 24.7949 131.753 24.9975 131.632 25.9698C131.632 26.0103 131.632 26.0914 131.632 26.1319V42.0136C131.632 43.1075 131.834 43.2695 132.766 43.3505C133.252 43.3911 133.698 43.4316 134.184 43.4721L133.09 44.1203ZM144.11 43.5936C143.786 43.7557 143.502 43.9583 143.178 44.0798C142.246 44.4849 141.315 44.6065 140.464 44.6065C139.573 44.6065 138.195 44.566 136.777 43.5126C134.792 42.1351 133.941 39.7042 133.941 37.638C133.941 33.3029 137.466 31.1962 140.302 31.1962C141.315 31.1962 142.328 31.4393 143.178 31.9659C144.556 32.8978 144.92 34.0727 145.123 34.721L138.6 37.3544L136.453 37.5164C137.142 41.0412 139.532 43.1074 142.206 43.1074C143.624 43.1074 144.637 42.6213 145.609 42.1351L144.11 43.5936ZM147.392 31.4393H146.784V33.2624H146.541V31.4393H145.933V31.2367H147.392V31.4393ZM149.499 33.2624H149.296V31.3988L148.729 33.2624H148.567L148 31.3988V33.2624H147.797V31.2367H148.162L148.688 32.8573L149.174 31.2367H149.539V33.2624H149.499ZM165.38 43.1885C164.408 44.4039 163.03 45.0116 161.288 45.0116C160.397 45.0116 159.627 44.8496 158.898 44.5255C158.169 44.2013 157.561 43.7152 157.075 43.0264H156.953C157.034 43.7962 157.115 44.566 157.115 45.2547V50.7647H155.09V31.4393H156.751L157.034 33.2624H157.115C157.642 32.5332 158.25 32.0065 158.938 31.6824C159.627 31.3582 160.438 31.1962 161.329 31.1962C163.111 31.1962 164.448 31.8039 165.421 33.0193C166.393 34.2348 166.879 35.9364 166.879 38.1242C166.839 40.2714 166.353 41.973 165.38 43.1885ZM171.498 44.728H169.472V25.7672H171.498V44.728ZM184.625 44.728H183.126L182.721 42.8239H182.639C181.991 43.6747 181.303 44.2419 180.654 44.5255C180.006 44.8091 179.155 44.9711 178.183 44.9711C176.846 44.9711 175.833 44.647 175.063 43.9583C174.293 43.2695 173.929 42.2972 173.929 41.0412C173.929 38.3673 176.076 36.9492 180.411 36.7872L182.68 36.7062V35.8959C182.68 34.8425 182.437 34.0727 181.991 33.5865C181.546 33.1004 180.816 32.8168 179.844 32.8168C178.71 32.8168 177.454 33.1409 176.076 33.8296L175.468 32.2901C176.117 31.9255 176.846 31.6418 177.616 31.4393C178.385 31.2367 179.196 31.1152 179.966 31.1152C181.546 31.1152 182.721 31.4798 183.49 32.1685C184.26 32.8978 184.625 33.9917 184.625 35.5718V44.728ZM192.606 46.5917C192.039 48.0907 191.391 49.1441 190.621 49.7923C189.851 50.4406 188.919 50.7242 187.825 50.7242C187.218 50.7242 186.61 50.6432 186.002 50.5216V48.901C186.448 48.9821 186.934 49.0631 187.501 49.0631C188.879 49.0631 189.892 48.2933 190.459 46.7132L191.188 44.8091L185.8 31.3988H187.987L190.904 39.0155C191.553 40.7576 191.958 42.0136 192.12 42.7833H192.201C192.322 42.3782 192.525 41.6489 192.849 40.6766C193.173 39.6637 194.308 36.5846 196.171 31.4393H198.319L192.606 46.5917Z" fill="white" fill-opacity="0.3"/>
</svg>
