<svg width="167" height="23" viewBox="0 0 167 23" fill="none" xmlns="http://www.w3.org/2000/svg">
<path fill-rule="evenodd" clip-rule="evenodd" d="M96.1433 2.68905C94.577 4.48557 93.7995 7.3806 93.7995 11.3741C93.7995 15.3448 94.577 18.2741 96.1433 20.1622C97.7322 22.0502 100.29 23 103.84 23C107.412 23 109.992 22.0388 111.57 20.1279C113.181 18.2169 113.981 15.2761 113.981 11.3055C113.981 7.31194 113.204 4.42836 111.638 2.65473C110.105 0.881094 107.525 0 103.907 0C100.313 0 97.7209 0.892537 96.1433 2.68905ZM103.907 6.16766C104.922 6.16766 105.586 6.47662 105.891 7.10597C106.195 7.70099 106.353 8.98259 106.353 10.9507V12.5985C106.353 14.5896 106.217 15.8597 105.958 16.4433C105.699 17.0154 105.045 17.3015 104.009 17.3015C102.972 17.3015 102.296 17.004 101.992 16.409C101.687 15.8139 101.53 14.5095 101.53 12.4955V10.905C101.53 8.94826 101.676 7.66667 101.958 7.0602C102.24 6.46517 102.893 6.16766 103.907 6.16766ZM33.0281 0.354726L28.4869 22.6338H20.0468L18.2325 13.594L16.6662 22.6338H8.22605L4.89055 7.55224L8.46269 6.20199H4.83421H1.20574L0 0.366169L10.2544 0.354726L12.3954 10.5846L14.9984 0.354726H21.7032L24.419 10.5846L26.3121 0.354726H33.0281ZM51.1592 22.6453H43.7107L43.0008 19.201H39.0681L38.3244 22.6453H31.1914L35.7664 0.354726H46.5842L51.1592 22.6453ZM42.4712 14.5667L41.0513 7.10597L39.5977 14.5667H42.4712ZM69.9439 10.9851C70.4172 10.1269 70.6538 8.97114 70.6538 7.5408C70.6538 5.0806 70.0003 3.27264 68.7044 2.12836C67.3972 0.949751 65.3689 0.354726 62.6306 0.354726L49.6267 0.366169L50.8325 6.20199H57.2105L53.2327 7.55224V22.6453H60.5009V14.9672H61.0643L63.2617 22.6453H71.1046L67.8029 13.205C68.7833 12.5642 69.4932 11.8204 69.9439 10.9851ZM62.3827 10.1154C62.1686 10.4244 61.7968 10.5846 61.2446 10.5846H60.3544V6.24776H61.2784C61.7742 6.24776 62.1461 6.40796 62.3827 6.71692C62.6194 7.02587 62.7321 7.58657 62.7321 8.399C62.7321 9.21144 62.6194 9.78358 62.3827 10.1154ZM84.3902 15.6766H82.869V22.6338H75.4204V7.52935L79.5109 6.20199H73.1329L71.9272 0.366169L83.9958 0.354726C84.2099 0.354726 84.4128 0.354726 84.6269 0.366169H84.7846C87.2975 0.469154 89.1455 1.06418 90.3513 2.1398C91.681 3.34129 92.3345 5.30945 92.3345 8.05572C92.3345 10.802 91.6922 12.7701 90.4189 13.9373C89.1456 15.1045 87.1397 15.6766 84.3902 15.6766ZM82.7225 6.22488H84.3451C84.5029 6.31642 84.6156 6.44229 84.7057 6.60249C84.9424 6.9801 85.0551 7.63234 85.0551 8.53632C85.0551 9.4403 84.9536 10.0925 84.7395 10.4701C84.548 10.8478 84.1874 11.0423 83.6352 11.0423H82.7112V6.22488H82.7225ZM123.717 22.6453H116.235V0.354726H123.717V6.4194H117.982L123.717 8.06716V22.6453ZM138.671 22.6453H146.57V7.55224L142.175 6.4194H151.833V22.6338H159.394V6.4194H164.521L166.921 0.354726H139.11V9.42886L134.716 0.354726H126.546V22.6338H133.949V13.8458L138.671 22.6453Z" fill="white"/>
</svg>
