<svg width="42" height="46" viewBox="0 0 42 46" fill="none" xmlns="http://www.w3.org/2000/svg">
<path d="M30.7586 5.41132C22.5844 0.801676 15.2376 3.28115 15.2376 3.28115C14.1525 1.39434 13.3508 0 13.3508 0L5.82074 13.4911L21.0182 13.3508C21.0182 13.3508 20.228 11.9765 19.1572 10.1126C19.1572 10.1126 22.4813 9.37962 26.9793 12.0595C30.3606 14.0751 38.7238 22.3067 32.6282 33.2324C27.4431 42.5232 17.9175 43.1531 10.8713 39.6916C8.97878 40.0208 5.78352 39.9378 5.78352 39.9378C6.97459 41.0802 8.32026 42.0966 9.80622 42.9555C19.9159 48.7963 32.8 45.1287 38.5864 34.7613C44.3728 24.3939 40.9284 11.149 30.7586 5.41132ZM0 30.2203C0.538269 32.1501 1.33994 33.9997 2.38785 35.7118C2.36208 35.1821 2.49951 33.2553 2.49951 33.2553C0.893296 31.5259 0 30.2203 0 30.2203Z" fill="white" fill-opacity="0.3"/>
<path d="M15.1146 27.3638C16.7895 26.522 17.8746 24.9416 18.3413 22.6196L18.4902 21.8809C19.2461 18.113 17.6341 15.96 13.9207 15.96C10.2072 15.96 7.73343 18.113 6.97757 21.8809L6.82868 22.6196C6.36486 24.9416 6.78287 26.522 8.15431 27.3638C6.36486 28.2714 5.34558 30.0208 4.89321 32.2741L4.52386 34.1237C3.768 37.8915 5.37994 40.0446 9.09342 40.0446C12.8069 40.0446 15.2806 37.8915 16.0365 34.1237L16.4059 32.2741C16.8554 30.0237 16.5376 28.2743 15.1146 27.3638ZM12.8126 31.8389L12.3746 34.0263C11.9222 36.1107 10.9373 36.6833 9.76626 36.6833C8.59524 36.6833 7.80501 36.1107 8.22303 34.0263L8.66109 31.8389C9.03043 29.9893 9.96381 29.1819 11.2694 29.1819C12.575 29.1819 13.182 29.9893 12.8126 31.8389ZM14.7796 22.0155L14.5162 23.3268C14.1383 25.2107 13.1133 25.8149 11.9422 25.8149C10.7369 25.8149 9.98958 25.2107 10.3675 23.3268L10.6309 22.0155C11.0547 19.8968 12.0739 19.3241 13.245 19.3241C14.416 19.3241 15.2033 19.8968 14.7796 22.0155ZM25.6595 26.6938L26.57 22.1529H23.9588L23.0483 26.6938H18.5647L18.0378 29.3165H22.5215L21.5996 33.9261H24.2107L25.1327 29.3165H29.6163L30.1432 26.6938H25.6595Z" fill="white" fill-opacity="0.3"/>
</svg>
