<svg width="220" height="259" viewBox="0 0 220 259" fill="none" xmlns="http://www.w3.org/2000/svg">
<path d="M101.391 221.444C101.391 223.285 101.538 225.122 101.832 226.941L102.659 232.054H117.932L118.759 226.941C119.054 225.122 119.201 223.285 119.201 221.444V192.325H101.391V221.444Z" fill="white" fill-opacity="0.4"/>
<path d="M103.69 238.884C103.695 244.861 105.264 250.746 108.262 256.028L109.605 258.393H110.702L112.034 256.045C115.043 250.751 116.614 244.85 116.614 238.859V235.7H103.687L103.69 238.884Z" fill="white" fill-opacity="0.4"/>
<path d="M68.48 199.336L55.697 190.048L43.8218 206.392C42.6753 207.969 41.6621 209.64 40.8182 211.392C38.9112 215.345 38.6669 222.759 40.6517 224.2C42.6364 225.64 49.901 222.898 53.0405 219.83C54.3424 218.559 55.5249 217.166 56.5992 215.692L68.48 199.336Z" fill="white" fill-opacity="0.4"/>
<path d="M60.963 182.802L57.437 187.655L70.2195 196.943L73.7455 192.09L60.963 182.802Z" fill="white" fill-opacity="0.4"/>
<path d="M15.6161 165.808L31.6774 160.59L27.5968 148.037L11.5439 153.253C9.99492 153.755 8.49038 154.388 7.05803 155.157C3.82967 156.892 0.0211473 161.783 0.65405 163.732C1.28695 165.681 7.54658 167.393 11.1747 166.863C12.682 166.641 14.1671 166.28 15.6161 165.808Z" fill="white" fill-opacity="0.4"/>
<path d="M213.262 155.016C211.916 154.311 210.503 153.728 209.054 153.259L192.99 148.04L188.909 160.595L204.965 165.811C206.514 166.314 208.102 166.688 209.712 166.908C213.345 167.402 219.3 165.684 219.933 163.735C220.568 161.783 216.51 156.72 213.262 155.016Z" fill="white" fill-opacity="0.4"/>
<path d="M176.773 206.403L164.89 190.048L152.107 199.336L163.982 215.68C165.129 217.257 166.403 218.737 167.807 220.083C170.977 223.117 177.953 225.643 179.938 224.2C181.923 222.759 181.559 215 179.61 211.067C178.805 209.435 177.845 207.877 176.773 206.403Z" fill="white" fill-opacity="0.4"/>
<path d="M159.625 182.797L146.843 192.084L150.369 196.937L163.151 187.649L159.625 182.797Z" fill="white" fill-opacity="0.4"/>
<path d="M98.585 231.217L97.9937 227.558C97.6689 225.543 97.5024 223.486 97.5024 221.443V201.173V200.965C95.2456 200.563 90.8402 199.666 90.8402 199.666C88.217 198.941 85.6549 198.075 83.1621 197.073C83.1621 197.073 79.5146 195.294 77.6908 194.378C77.4965 194.281 77.2994 194.181 77.1051 194.078L76.9802 194.25L73.9073 198.475L59.7419 217.973C59.642 218.112 59.5393 218.251 59.4366 218.387C58.3124 219.894 57.1021 221.285 55.8335 222.534C57.8183 223.697 59.8419 224.799 61.9044 225.834C63.0369 224.605 64.1167 223.286 65.1327 221.89L65.3881 221.54C73.5936 225.548 82.4154 228.491 91.6702 230.19L92.5835 235.828C94.9652 236.219 97.3691 236.535 99.8008 236.769V235.939H99.3483L98.585 231.217Z" fill="white" fill-opacity="0.4"/>
<path d="M58.1619 180.041L58.037 180.213L54.8364 184.618L40.6766 204.108C40.6044 204.205 40.535 204.305 40.4656 204.405C39.383 205.926 38.4226 207.506 37.612 209.107C35.9048 207.553 34.2476 205.94 32.6487 204.277C33.4426 202.884 34.3254 201.518 35.2886 200.191L35.6855 199.647C29.0262 192.577 23.3634 184.563 18.9192 175.824L18.872 175.841C17.1037 176.418 15.3188 176.86 13.5534 177.16C12.5235 175.08 11.5603 172.965 10.6665 170.814C11.0384 170.792 11.3965 170.756 11.738 170.706C13.162 170.497 14.6166 170.173 16.0683 169.737C16.3182 169.665 16.5652 169.587 16.8151 169.506L36.5738 163.086L30.0921 143.138L10.3417 149.556C10.1751 149.612 10.0086 149.664 9.8448 149.725C8.22368 150.278 6.66918 150.955 5.22017 151.732C5.08415 151.807 4.94258 151.885 4.79823 151.971C4.31523 149.706 3.9044 147.416 3.57129 145.101C5.07582 144.379 37.5704 134.142 37.5704 134.142C38.5586 149.603 44.3713 163.755 53.5151 175.105C53.5151 175.105 56.4603 178.281 57.9815 179.855C58.0426 179.919 58.1008 179.98 58.1619 180.041Z" fill="white" fill-opacity="0.4"/>
<path d="M217.015 145.101C216.68 147.421 216.269 149.717 215.786 151.985C215.544 151.835 215.303 151.699 215.067 151.574C213.718 150.866 212.266 150.245 210.742 149.725C210.581 149.67 210.417 149.614 210.253 149.562L190.495 143.141L184.01 163.089L203.763 169.506C204.013 169.587 204.263 169.665 204.516 169.74C206.07 170.206 207.638 170.547 209.187 170.758C209.415 170.789 209.657 170.814 209.912 170.831C209.021 172.976 208.06 175.089 207.033 177.162C205.254 176.86 203.466 176.416 201.704 175.844L201.665 175.83C197.221 184.566 191.558 192.58 184.901 199.647L185.306 200.202C186.27 201.529 187.152 202.895 187.941 204.277C186.339 205.94 184.682 207.553 182.975 209.107C182.172 207.517 181.212 205.937 180.118 204.405C180.052 204.308 179.985 204.213 179.916 204.119L165.75 184.618L162.55 180.213L162.425 180.041C162.489 179.98 162.547 179.919 162.608 179.855C164.126 178.281 167.072 175.105 167.072 175.105C176.215 163.755 182.028 149.603 183.016 134.142C183.016 134.142 215.522 144.385 217.015 145.101Z" fill="white" fill-opacity="0.4"/>
<path d="M160.837 217.964L149.506 202.367L148.218 200.593L146.68 198.475L143.607 194.247L143.482 194.075C143.288 194.178 143.093 194.278 142.896 194.375C141.075 195.294 137.425 197.073 137.425 197.073C134.932 198.075 132.37 198.941 129.747 199.666C129.747 199.666 125.341 200.562 123.085 200.965V201.173V221.443C123.085 223.486 122.918 225.543 122.593 227.558L122.002 231.217L121.239 235.938H120.498V236.793C123.026 236.56 125.527 236.235 128.004 235.827L128.917 230.19C138.174 228.491 146.996 225.548 155.202 221.537L155.449 221.879C156.459 223.269 157.542 224.593 158.685 225.831C160.748 224.799 162.772 223.697 164.756 222.531C163.477 221.271 162.266 219.88 161.15 218.384C161.042 218.245 160.939 218.106 160.837 217.964Z" fill="white" fill-opacity="0.4"/>
<path d="M7.32472 101.783C8.67102 102.488 10.084 103.071 11.533 103.54L27.597 108.759L31.6776 96.2038L15.6218 90.9879C14.0729 90.4855 12.4851 90.1107 10.8751 89.8914C7.24144 89.3973 1.28716 91.1156 0.654255 93.0643C0.0213525 95.0129 4.07693 100.079 7.32472 101.783Z" fill="white" fill-opacity="0.4"/>
<path d="M47.4473 90.4606C41.8234 100.012 38.3147 110.958 37.5679 122.653C37.5679 122.653 5.06228 112.41 3.56885 111.693C3.90473 109.373 4.31556 107.077 4.79857 104.809C5.04007 104.959 5.28157 105.095 5.51752 105.22C6.8666 105.928 8.31839 106.55 9.84236 107.069C10.0034 107.124 10.1671 107.18 10.3309 107.232L30.0897 113.653L36.5742 93.7056L16.8209 87.2877C16.5711 87.2072 16.3213 87.1295 16.0687 87.0546C14.5142 86.5882 12.9458 86.2468 11.3969 86.0358C11.1692 86.0053 10.9277 85.9803 10.6723 85.9636C11.5634 83.8179 12.5239 81.7054 13.5509 79.6318C15.1776 79.9094 16.8126 80.3036 18.4254 80.806L18.5031 80.831L47.4473 90.4606Z" fill="white" fill-opacity="0.4"/>
<path d="M213.263 101.78C211.917 102.485 210.504 103.068 209.055 103.538L192.991 108.756L188.91 96.2009L204.966 90.985C206.515 90.4825 208.103 90.1078 209.713 89.8885C213.346 89.3944 219.301 91.1127 219.933 93.0613C220.569 95.01 216.511 100.076 213.263 101.78Z" fill="white" fill-opacity="0.4"/>
<path d="M173.14 90.4606C178.764 100.012 182.273 110.958 183.02 122.653C183.02 122.653 215.525 112.41 217.019 111.693C216.683 109.373 216.272 107.077 215.789 104.809C215.547 104.959 215.306 105.095 215.07 105.22C213.721 105.928 212.269 106.55 210.745 107.069C210.584 107.124 210.42 107.18 210.257 107.232L190.498 113.653L184.013 93.7056L203.767 87.2877C204.016 87.2072 204.266 87.1295 204.519 87.0546C206.073 86.5882 207.642 86.2468 209.191 86.0358C209.418 86.0053 209.66 85.9803 209.915 85.9636C209.024 83.8179 208.064 81.7054 207.037 79.6318C205.41 79.9094 203.775 80.3036 202.162 80.806L202.084 80.831L173.14 90.4606Z" fill="white" fill-opacity="0.4"/>
<path d="M154.339 108.253C154.339 108.253 144.432 90.2432 114.735 90.2432V146.094C119.218 150.077 121.37 153.173 125.442 158.688C123.668 161.883 122.341 164.271 120.345 166.611C118.069 164.551 116.298 162.808 114.735 161.148V180.39L138.83 172.643L141.356 158.594L155.133 153.492L154.339 108.253ZM138.28 145.247C134.519 146.616 119.796 139.093 119.796 139.093L147.491 131.701C147.491 131.701 144.24 143.082 138.28 145.247Z" fill="white" fill-opacity="0.4"/>
<path d="M64.9019 145.997L78.6786 151.099L81.2047 165.148L105.299 172.895V153.653C103.737 155.313 101.968 157.056 99.6893 159.116C97.6962 156.775 96.3666 154.388 94.5928 151.193C98.6622 145.675 100.816 142.582 105.299 138.599V82.748C75.6029 82.748 65.6958 100.758 65.6958 100.758L64.9019 145.997ZM72.5411 124.206L100.236 131.598C100.236 131.598 85.5128 139.121 81.7515 137.752C75.7944 135.587 72.5411 124.206 72.5411 124.206Z" fill="white" fill-opacity="0.4"/>
<path d="M119.198 66.5088V37.3897C119.198 35.5493 119.051 33.7117 118.756 31.8935L117.929 26.7803H102.656L101.829 31.8935C101.535 33.7117 101.388 35.5493 101.388 37.3897V66.5088H119.198Z" fill="white" fill-opacity="0.4"/>
<path d="M116.9 19.9513C116.894 13.9748 115.326 8.08996 112.328 2.80744L110.984 0.442383H109.888L108.555 2.79078C105.546 8.08441 103.975 13.9859 103.975 19.9763V23.1353H116.902L116.9 19.9513Z" fill="white" fill-opacity="0.4"/>
<path d="M56.6046 41.0079C55.4581 39.4312 54.184 37.9517 52.7794 36.6054C49.6093 33.5713 42.6335 31.0453 40.6488 32.4887C38.664 33.9294 39.0276 41.688 40.9763 45.6215C41.7841 47.2537 42.7418 48.8082 43.8133 50.2849L55.6968 66.6405L68.4798 57.3524L56.6046 41.0079Z" fill="white" fill-opacity="0.4"/>
<path d="M70.2215 59.7467L57.439 69.0342L60.965 73.8871L73.7475 64.5997L70.2215 59.7467Z" fill="white" fill-opacity="0.4"/>
<path d="M176.764 50.2938C177.91 48.717 178.924 47.046 179.768 45.2944C181.675 41.3415 181.919 33.9271 179.934 32.4864C177.949 31.0457 170.685 33.7883 167.545 36.8557C166.243 38.127 165.061 39.5205 163.987 40.9945L152.103 57.3501L164.886 66.6382L176.764 50.2938Z" fill="white" fill-opacity="0.4"/>
<path d="M150.369 59.7476L146.843 64.6006L159.625 73.888L163.151 69.0351L150.369 59.7476Z" fill="white" fill-opacity="0.4"/>
</svg>
